<?xml version="1.0" encoding="UTF-8"?>
<svg version="1.1" xmlns="http://www.w3.org/2000/svg" width="200" height="183">
<path d="M0 0 C66 0 132 0 200 0 C200 60.39 200 120.78 200 183 C134 183 68 183 0 183 C0 122.61 0 62.22 0 0 Z " fill="#DEDFDD" transform="translate(0,0)"/>
<path d="M0 0 C0.66 0 1.32 0 2 0 C2 13.86 2 27.72 2 42 C-4.55852387 40.54255025 -7.55962699 39.76429764 -13 37 C-16.63562023 36.14269217 -20.27573384 35.49543957 -23.953125 34.84375 C-27 34 -27 34 -29 31 C-31.64047252 29.98247445 -31.64047252 29.98247445 -34.625 29.3125 C-35.62789062 29.06113281 -36.63078125 28.80976563 -37.6640625 28.55078125 C-38.43492187 28.36902344 -39.20578125 28.18726563 -40 28 C-40 27.34 -40 26.68 -40 26 C-32.125 26.875 -32.125 26.875 -31 28 C-28.71463034 28.37407585 -26.42119945 28.69947492 -24.125 29 C-17.31525424 29.89491525 -17.31525424 29.89491525 -14 31 C-14 30.34 -14 29.68 -14 29 C-16.64 28.34 -19.28 27.68 -22 27 C-22 26.34 -22 25.68 -22 25 C-22.99 25 -23.98 25 -25 25 C-25 24.01 -25 23.02 -25 22 C-27.31 21.67 -29.62 21.34 -32 21 C-31.125 16.25 -31.125 16.25 -30 14 C-30.66 14 -31.32 14 -32 14 C-31.65547129 8.65980498 -31.65547129 8.65980498 -31 6 C-29.1875 4.4375 -29.1875 4.4375 -27 4 C-23.5 4.5 -23.5 4.5 -22 6 C-21.67 5.01 -21.34 4.02 -21 3 C-18.93359375 2.26953125 -18.93359375 2.26953125 -16.4375 1.8125 C-15.61121094 1.65394531 -14.78492188 1.49539062 -13.93359375 1.33203125 C-12.97646484 1.16767578 -12.97646484 1.16767578 -12 1 C-11.566875 1.804375 -11.13375 2.60875 -10.6875 3.4375 C-9.19525998 6.27846354 -9.19525998 6.27846354 -6 7 C-6 8.65 -6 10.3 -6 12 C-5.01 12.33 -4.02 12.66 -3 13 C-2.34 12.67 -1.68 12.34 -1 12 C-1 11.01 -1 10.02 -1 9 C-1.99 9 -2.98 9 -4 9 C-4 8.01 -4 7.02 -4 6 C-3.34 5.67 -2.68 5.34 -2 5 C-1.27840576 3.35636866 -0.60648579 1.68949614 0 0 Z " fill="#C9C9C8" transform="translate(198,117)"/>
<path d="M0 0 C0.33 0.66 0.66 1.32 1 2 C3.12576782 2.46651207 3.12576782 2.46651207 5.5625 2.625 C6.38878906 2.69976562 7.21507812 2.77453125 8.06640625 2.8515625 C8.70449219 2.90054688 9.34257812 2.94953125 10 3 C10 3.99 10 4.98 10 6 C7.69 6 5.38 6 3 6 C3.02320313 7.29292969 3.04640625 8.58585937 3.0703125 9.91796875 C3.18084051 18.8802362 3.01961765 27.3948896 1.4609375 36.25 C0.06272814 44.59185922 1.42421649 50.35357009 5 58 C5.93423645 54.98968256 6.04449911 54.13349732 5 51 C7.91517292 52.07401108 9.77810176 52.77810176 12 55 C12.845625 55.165 13.69125 55.33 14.5625 55.5 C15.366875 55.665 16.17125 55.83 17 56 C17.33 56.66 17.66 57.32 18 58 C19.64363134 58.72159424 21.31050386 59.39351421 23 60 C23 60.99 23 61.98 23 63 C24.258125 63.268125 25.51625 63.53625 26.8125 63.8125 C29.99448801 64.59532537 32.00244311 65.25335928 34 68 C34.309375 67.38125 34.61875 66.7625 34.9375 66.125 C35.625 64.75 36.3125 63.375 37 62 C40.16115776 63.36983503 40.9927092 63.9890638 43 67 C41.02 67 39.04 67 37 67 C39.97 67.99 39.97 67.99 43 69 C43 69.66 43 70.32 43 71 C43.99 71 44.98 71 46 71 C45.67 72.65 45.34 74.3 45 76 C30.81 76 16.62 76 2 76 C1.33941317 68.07295801 0.89806944 61.66265558 2 54 C1.01 53.67 0.02 53.34 -1 53 C-4.30579029 46.0404415 -3.25345205 38.36403082 -2 31 C-1.34 31 -0.68 31 0 31 C0.66 27.04 1.32 23.08 2 19 C1.34 19 0.68 19 0 19 C-1.31626692 15.38026598 -2 12.90432869 -2 9 C-2.66 9 -3.32 9 -4 9 C-4 8.01 -4 7.02 -4 6 C-3.34 6 -2.68 6 -2 6 C-1.34 4.02 -0.68 2.04 0 0 Z " fill="#D4D4D2" transform="translate(134,107)"/>
<path d="M0 0 C2.64 0 5.28 0 8 0 C8 1.65 8 3.3 8 5 C8.598125 5.268125 9.19625 5.53625 9.8125 5.8125 C11.97224808 6.98493467 13.35790256 8.19369282 15 10 C14.01 11.485 14.01 11.485 13 13 C11.68 12.67 10.36 12.34 9 12 C9 12.66 9 13.32 9 14 C9.99 14 10.98 14 12 14 C12 14.66 12 15.32 12 16 C12.66 16.33 13.32 16.66 14 17 C14.33 15.68 14.66 14.36 15 13 C16.0725 13.061875 17.145 13.12375 18.25 13.1875 C21.89665716 13.36108072 21.89665716 13.36108072 23.875 11.5625 C27.20953218 9.1106381 30.95509711 9.25064569 35 9 C31.98112756 12.48331435 29.43090471 13.79157144 25 15 C25 15.66 25 16.32 25 17 C22.69 17.66 20.38 18.32 18 19 C18 19.66 18 20.32 18 21 C17.38253906 21.30292969 16.76507812 21.60585937 16.12890625 21.91796875 C15.28199219 22.33691406 14.43507813 22.75585938 13.5625 23.1875 C12.64984375 23.63867188 11.7371875 24.08984375 10.796875 24.5546875 C7.53104195 26.24233866 4.40886386 28.1206199 1.30078125 30.08203125 C-1 31 -1 31 -8 31 C-8 22.75 -8 14.5 -8 6 C-5.69 4.68 -3.38 3.36 -1 2 C-0.67 1.34 -0.34 0.68 0 0 Z " fill="#DBDCDA" transform="translate(8,152)"/>
<path d="M0 0 C3.52038401 0.43106743 6.7979019 0.93659668 10.1875 2 C14.49862283 3.13078632 18.50462131 3.4426708 22.9375 3.625 C23.71673828 3.66367188 24.49597656 3.70234375 25.29882812 3.7421875 C27.19887379 3.83544127 29.09940278 3.91875962 31 4 C31.495 5.485 31.495 5.485 32 7 C32.66 7.33 33.32 7.66 34 8 C34 13.61 34 19.22 34 25 C25.70535944 23.36620716 25.70535944 23.36620716 22.1484375 21.51953125 C17.61305404 19.33061789 12.97665647 18.71738216 8.046875 17.84375 C5 17 5 17 3 14 C0.35952748 12.98247445 0.35952748 12.98247445 -2.625 12.3125 C-3.62789062 12.06113281 -4.63078125 11.80976563 -5.6640625 11.55078125 C-6.43492187 11.36902344 -7.20578125 11.18726563 -8 11 C-8 10.34 -8 9.68 -8 9 C-0.125 9.875 -0.125 9.875 1 11 C3.28536966 11.37407585 5.57880055 11.69947492 7.875 12 C14.68474576 12.89491525 14.68474576 12.89491525 18 14 C18 13.34 18 12.68 18 12 C15.36 11.34 12.72 10.68 10 10 C10 9.34 10 8.68 10 8 C9.01 8 8.02 8 7 8 C7 7.01 7 6.02 7 5 C4.69 4.67 2.38 4.34 0 4 C0 2.68 0 1.36 0 0 Z " fill="#BDBDBD" transform="translate(166,134)"/>
<path d="M0 0 C1.65 0 3.3 0 5 0 C5 1.32 5 2.64 5 4 C9.60531088 3.69084719 13.69608284 3.27453038 17.9375 1.375 C21.96568916 -0.27759042 25.01481905 0.12364201 29.2578125 0.73828125 C34.1957848 1.2095692 39.08644634 0.54876458 44 0 C38.8526181 2.66901284 34.68305881 4.24089481 28.82421875 4.4140625 C27.08881836 4.47207031 27.08881836 4.47207031 25.31835938 4.53125 C24.12017578 4.5621875 22.92199219 4.593125 21.6875 4.625 C20.46998047 4.66367188 19.25246094 4.70234375 17.99804688 4.7421875 C14.99884772 4.83628002 11.99965177 4.92192209 9 5 C9 5.66 9 6.32 9 7 C8.01 7 7.02 7 6 7 C6.33 10.3 6.66 13.6 7 17 C8.65 17.33 10.3 17.66 12 18 C12 18.66 12 19.32 12 20 C12.66386719 19.98839844 13.32773437 19.97679688 14.01171875 19.96484375 C15.33623047 19.95130859 15.33623047 19.95130859 16.6875 19.9375 C17.55761719 19.92589844 18.42773438 19.91429688 19.32421875 19.90234375 C22 20 22 20 24.515625 20.546875 C28.82563137 21.33297679 32.8716398 20.32970792 37 19 C39.59332967 17.08508541 39.59332967 17.08508541 41 15 C43.29013653 18.4352048 43.17842973 19.985331 43 24 C43.66 24 44.32 24 45 24 C45.495 27.465 45.495 27.465 46 31 C45.48010498 30.18885742 44.96020996 29.37771484 44.42456055 28.54199219 C42.20675762 25.73378733 42.20675762 25.73378733 38.87817383 25.35644531 C37.66669678 25.34709961 36.45521973 25.33775391 35.20703125 25.328125 C34.5477211 25.31573792 33.88841095 25.30335083 33.2091217 25.29058838 C31.07656122 25.25496039 28.94533142 25.25262995 26.8125 25.25 C25.35233594 25.22996596 23.89220713 25.20717542 22.43212891 25.18164062 C19.57311049 25.13265769 16.71423158 25.0929918 13.85498047 25.06054688 C9.18550932 24.98720749 4.53526077 24.79306403 -0.125 24.5 C-1.34445312 24.4278125 -2.56390625 24.355625 -3.8203125 24.28125 C-6.92059161 24.00702384 -9.93915678 23.55820849 -13 23 C-13 21.68 -13 20.36 -13 19 C-12.24074219 18.93941406 -11.48148438 18.87882812 -10.69921875 18.81640625 C-9.70535156 18.73261719 -8.71148437 18.64882812 -7.6875 18.5625 C-6.70136719 18.48128906 -5.71523437 18.40007812 -4.69921875 18.31640625 C-1.90624401 18.08187441 -1.90624401 18.08187441 1 17 C1.33 13.7 1.66 10.4 2 7 C2.66 7 3.32 7 4 7 C4 6.34 4 5.68 4 5 C-0.29 4.67 -4.58 4.34 -9 4 C-8.67 3.34 -8.34 2.68 -8 2 C-5.35139573 1.40644386 -2.70802678 1.25790731 0 1 C0 0.67 0 0.34 0 0 Z " fill="#B3B4B2" transform="translate(13,88)"/>
<path d="M0 0 C0.66 0.33 1.32 0.66 2 1 C2.625 3.0625 2.625 3.0625 3 5 C2.01 5 1.02 5 0 5 C0 5.66 0 6.32 0 7 C0.99902344 7.12117187 1.99804688 7.24234375 3.02734375 7.3671875 C4.31769531 7.53476563 5.60804687 7.70234375 6.9375 7.875 C8.86916016 8.11863281 8.86916016 8.11863281 10.83984375 8.3671875 C11.88269531 8.57601562 12.92554688 8.78484375 14 9 C15 11 15 11 15 18 C0.15 18 -14.7 18 -30 18 C-26.13847197 14.91077758 -23.14682246 12.8821636 -18.8125 10.75 C-17.76707031 10.22921875 -16.72164062 9.7084375 -15.64453125 9.171875 C-13 8 -13 8 -11 8 C-11 7.34 -11 6.68 -11 6 C-8.35261084 4.5393715 -7.10551666 4 -4 4 C-4 3.34 -4 2.68 -4 2 C-2.125 0.9375 -2.125 0.9375 0 0 Z " fill="#DBDBD9" transform="translate(37,165)"/>
<path d="M0 0 C4.29 0 8.58 0 13 0 C13 5.94 13 11.88 13 18 C11.14375 19.0209375 11.14375 19.0209375 9.25 20.0625 C4.29268563 22.80082603 -0.55526968 25.70984687 -5.3984375 28.64453125 C-8 30 -8 30 -11 30 C-9.58870791 26.59672792 -8.0147001 25.01564804 -5 22.9375 C-2.22079739 21.01147172 -0.92530434 19.88795651 1 17 C-2.3 16.34 -5.6 15.68 -9 15 C-8.67 12.69 -8.34 10.38 -8 8 C-6.9275 7.71125 -5.855 7.4225 -4.75 7.125 C-1.90599636 6.27179891 0.43508983 5.4363497 3 4 C3 3.01 3 2.02 3 1 C2.01 0.67 1.02 0.34 0 0 Z " fill="#C3C4C2" transform="translate(187,0)"/>
<path d="M0 0 C0.66 0 1.32 0 2 0 C2 0.99 2 1.98 2 3 C2.66 3 3.32 3 4 3 C4 2.34 4 1.68 4 1 C4.66 1 5.32 1 6 1 C5.30058404 4.14737182 4.23921302 7.02588876 3 10 C2.34 10 1.68 10 1 10 C1 10.99 1 11.98 1 13 C1.66 13 2.32 13 3 13 C3.66 16.3 4.32 19.6 5 23 C5.66 23 6.32 23 7 23 C6.85831863 24.43791516 6.71148957 25.8753237 6.5625 27.3125 C6.48128906 28.11300781 6.40007812 28.91351563 6.31640625 29.73828125 C6 32 6 32 5 35 C4.34 35 3.68 35 3 35 C2.67 40.28 2.34 45.56 2 51 C1.34 51 0.68 51 0 51 C0 49.68 0 48.36 0 47 C-2.24071094 48.00445663 -3.87754985 48.87754985 -5.625 50.625 C-6.305625 51.305625 -6.305625 51.305625 -7 52 C-7.66 52 -8.32 52 -9 52 C-8.42415568 49.61435923 -7.77772405 47.33317216 -7 45 C-6.01 45 -5.02 45 -4 45 C-4.27034634 42.56282742 -4.27034634 42.56282742 -5 40 C-5.99 39.34 -6.98 38.68 -8 38 C-7.59313032 35.15191222 -7.28670818 34.21720316 -4.9375 32.4375 C-2.18404711 28.97347862 -2.77635961 26.14749295 -3.0546875 21.8515625 C-2.9914424 18.55378212 -2.05898562 16.11373384 -1 13 C-0.72419137 10.71547193 -0.5156214 8.42181617 -0.375 6.125 C-0.30023438 4.97257812 -0.22546875 3.82015625 -0.1484375 2.6328125 C-0.09945312 1.76398438 -0.05046875 0.89515625 0 0 Z " fill="#D9D9D9" transform="translate(129,103)"/>
<path d="M0 0 C0.33 0.66 0.66 1.32 1 2 C3.12576782 2.46651207 3.12576782 2.46651207 5.5625 2.625 C6.38878906 2.69976562 7.21507812 2.77453125 8.06640625 2.8515625 C8.70449219 2.90054688 9.34257812 2.94953125 10 3 C10 3.99 10 4.98 10 6 C7.69 6 5.38 6 3 6 C3.02320313 7.29292969 3.04640625 8.58585937 3.0703125 9.91796875 C3.18084051 18.8802362 3.01961765 27.3948896 1.4609375 36.25 C0.19950046 43.77586164 0.98027518 48.95623555 4.125 55.93359375 C5 58 5 58 5 60 C6.32 60 7.64 60 9 60 C11.09350689 63.4019487 11.17942163 66.05272412 11 70 C9.35 69.01 7.7 68.02 6 67 C6 68.65 6 70.3 6 72 C7.98 71.505 7.98 71.505 10 71 C10.99 72.65 11.98 74.3 13 76 C9.37 76 5.74 76 2 76 C1.20829562 68.43482482 0.9169897 61.53108701 2 54 C1.01 53.67 0.02 53.34 -1 53 C-4.30579029 46.0404415 -3.25345205 38.36403082 -2 31 C-1.34 31 -0.68 31 0 31 C0.66 27.04 1.32 23.08 2 19 C1.34 19 0.68 19 0 19 C-1.31626692 15.38026598 -2 12.90432869 -2 9 C-2.66 9 -3.32 9 -4 9 C-4 8.01 -4 7.02 -4 6 C-3.34 6 -2.68 6 -2 6 C-1.34 4.02 -0.68 2.04 0 0 Z " fill="#898A8B" transform="translate(134,107)"/>
<path d="M0 0 C1.32031595 0.56542004 2.6311301 1.15306472 3.9375 1.75 C4.66839844 2.07484375 5.39929688 2.3996875 6.15234375 2.734375 C8 4 8 4 8.75390625 6.140625 C8.83511719 6.75421875 8.91632813 7.3678125 9 8 C9.66 8 10.32 8 11 8 C11.33 8.99 11.66 9.98 12 11 C14.50447516 12.21869929 14.50447516 12.21869929 17 13 C17 13.66 17 14.32 17 15 C18.65 15.66 20.3 16.32 22 17 C22 17.66 22 18.32 22 19 C22.94875 18.95875 23.8975 18.9175 24.875 18.875 C28 19 28 19 30 21 C26.06274674 21.11594584 22.12593077 21.18716464 18.1875 21.25 C17.06794922 21.28351563 15.94839844 21.31703125 14.79492188 21.3515625 C13.72177734 21.36445313 12.64863281 21.37734375 11.54296875 21.390625 C10.0583313 21.4220459 10.0583313 21.4220459 8.54370117 21.45410156 C6 21 6 21 4.34106445 19.03808594 C3.67723755 18.0292334 3.67723755 18.0292334 3 17 C2.01 16.67 1.02 16.34 0 16 C-0.33 16.66 -0.66 17.32 -1 18 C-2 17 -2 17 -2.0625 13.9375 C-2.041875 12.968125 -2.02125 11.99875 -2 11 C0.475 12.485 0.475 12.485 3 14 C3.08886184 10.80097361 2.91058531 8.07322544 2 5 C0.68 4.67 -0.64 4.34 -2 4 C-1.34 2.68 -0.68 1.36 0 0 Z " fill="#D9DBD8" transform="translate(141,162)"/>
<path d="M0 0 C3.96 0 7.92 0 12 0 C12.33 0.66 12.66 1.32 13 2 C14.32 2 15.64 2 17 2 C17 7.61 17 13.22 17 19 C11.4482339 17.90647031 7.01792908 16.68400858 2 14 C-0.23525035 13.31363375 -0.23525035 13.31363375 -2 13 C-2 12.34 -2 11.68 -2 11 C-2.66 10.67 -3.32 10.34 -4 10 C2.93 10.495 2.93 10.495 10 11 C9.67 9.35 9.34 7.7 9 6 C7.35 6.33 5.7 6.66 4 7 C4 6.01 4 5.02 4 4 C2.35 4 0.7 4 -1 4 C-0.67 2.68 -0.34 1.36 0 0 Z " fill="#BDBDBC" transform="translate(183,140)"/>
<path d="M0 0 C1.32 0.33 2.64 0.66 4 1 C3.01 2.485 3.01 2.485 2 4 C3.24716797 3.87431641 3.24716797 3.87431641 4.51953125 3.74609375 C5.60621094 3.64425781 6.69289063 3.54242188 7.8125 3.4375 C8.89144531 3.33308594 9.97039063 3.22867188 11.08203125 3.12109375 C14 3 14 3 17 4 C17 4.66 17 5.32 17 6 C16.34 6 15.68 6 15 6 C15 9.3 15 12.6 15 16 C9.6528452 18.6735774 5.94626972 18.14157785 0 18 C0 12.06 0 6.12 0 0 Z " fill="#DFE2DF" transform="translate(0,89)"/>
<path d="M0 0 C-0.33 0.99 -0.66 1.98 -1 3 C-2.32 3 -3.64 3 -5 3 C-4.67 3.99 -4.34 4.98 -4 6 C-3.01 6 -2.02 6 -1 6 C-1.33 7.65 -1.66 9.3 -2 11 C-3.98 11.66 -5.96 12.32 -8 13 C-8 12.34 -8 11.68 -8 11 C-11.3 11 -14.6 11 -18 11 C-18 10.34 -18 9.68 -18 9 C-20.94091587 9.18415432 -20.94091587 9.18415432 -24 10 C-25.33333333 11.83333333 -25.33333333 11.83333333 -26 14 C-26.99 15.485 -26.99 15.485 -28 17 C-28.66 17 -29.32 17 -30 17 C-28.5854292 12.4990929 -26.38169453 10.22798114 -23 7 C-22.4740625 6.07380859 -22.4740625 6.07380859 -21.9375 5.12890625 C-17.14844732 -2.70056474 -8.06670752 -0.56592714 0 0 Z " fill="#C4C5C2" transform="translate(177,0)"/>
<path d="M0 0 C1.32 0.33 2.64 0.66 4 1 C4 1.66 4 2.32 4 3 C6.97 3 9.94 3 13 3 C13 2.34 13 1.68 13 1 C14.32 1.33 15.64 1.66 17 2 C17 3.65 17 5.3 17 7 C21.95 6.67 26.9 6.34 32 6 C32 8.97 32 11.94 32 15 C31.01 14.67 30.02 14.34 29 14 C29 13.01 29 12.02 29 11 C27.2984375 11.2784375 27.2984375 11.2784375 25.5625 11.5625 C16.12018988 12.68501239 7.91160013 9.96135089 -1 7 C-0.67 6.01 -0.34 5.02 0 4 C-0.66 4 -1.32 4 -2 4 C-1.34 2.68 -0.68 1.36 0 0 Z " fill="#CFCFCF" transform="translate(168,127)"/>
<path d="M0 0 C18.48 0.33 36.96 0.66 56 1 C56 1.66 56 2.32 56 3 C42.59558413 5.27431541 29.54830794 5.05062336 16 4.625 C13.85680069 4.5666022 11.71357115 4.50930307 9.5703125 4.453125 C4.37977351 4.31472224 -0.81013184 4.16154486 -6 4 C-5.99476318 4.56396484 -5.98952637 5.12792969 -5.98413086 5.70898438 C-5.96312733 8.30597789 -5.95026638 10.90295344 -5.9375 13.5 C-5.92912109 14.386875 -5.92074219 15.27375 -5.91210938 16.1875 C-5.89236404 21.55823086 -6.21164107 26.68633663 -7 32 C-7.66 31.67 -8.32 31.34 -9 31 C-8.76990234 29.34484375 -8.76990234 29.34484375 -8.53515625 27.65625 C-7.90498324 22.6148659 -7.66239916 17.57313521 -7.4375 12.5 C-7.39431641 11.5821875 -7.35113281 10.664375 -7.30664062 9.71875 C-7.20166544 7.47927939 -7.09950752 5.23971908 -7 3 C-4.69 3 -2.38 3 0 3 C0 2.01 0 1.02 0 0 Z " fill="#B5B6B4" transform="translate(144,110)"/>
<path d="M0 0 C0.33 0.99 0.66 1.98 1 3 C1.66 3 2.32 3 3 3 C3.99 4.485 3.99 4.485 5 6 C5.99 6.33 6.98 6.66 8 7 C8.33 11.62 8.66 16.24 9 21 C9.66 21 10.32 21 11 21 C14.31968692 28.40272431 14.08336164 34.61472214 13.1875 42.5625 C13.07857422 43.66658203 12.96964844 44.77066406 12.85742188 45.90820312 C12.58864116 48.60769639 12.30252426 51.30411594 12 54 C11.34 54 10.68 54 10 54 C10.03480469 52.15535156 10.03480469 52.15535156 10.0703125 50.2734375 C10.08908039 48.6406311 10.10727949 47.0078181 10.125 45.375 C10.14175781 44.56675781 10.15851563 43.75851563 10.17578125 42.92578125 C10.21402211 38.22215506 9.92936568 34.38492199 8 30 C7.34 29.34 6.68 28.68 6 28 C5.5859375 25.3984375 5.5859375 25.3984375 5.375 22.375 C5.30023438 21.37210938 5.22546875 20.36921875 5.1484375 19.3359375 C5.09945312 18.56507813 5.05046875 17.79421875 5 17 C4.34 17 3.68 17 3 17 C2.49453964 14.91798472 1.99583165 12.83432933 1.5 10.75 C1.2215625 9.58984375 0.943125 8.4296875 0.65625 7.234375 C0 4 0 4 0 0 Z " fill="#646462" transform="translate(60,124)"/>
<path d="M0 0 C-0.020625 0.804375 -0.04125 1.60875 -0.0625 2.4375 C-0.29633621 4.93354885 -0.29633621 4.93354885 1 6 C1.07179964 7.51928038 1.08392007 9.04167482 1.0625 10.5625 C1.05347656 11.38878906 1.04445312 12.21507812 1.03515625 13.06640625 C1.02355469 13.70449219 1.01195312 14.34257813 1 15 C0.34 15 -0.32 15 -1 15 C-1.66 12.36 -2.32 9.72 -3 7 C-3.33 7.33 -3.66 7.66 -4 8 C-18.68852459 10.6557377 -18.68852459 10.6557377 -24 8 C-24.33 8.99 -24.66 9.98 -25 11 C-27.92079805 13.07530387 -29.37546731 14 -33 14 C-33 14.66 -33 15.32 -33 16 C-34.32 16 -35.64 16 -37 16 C-37 16.66 -37 17.32 -37 18 C-37.99 18 -38.98 18 -40 18 C-40.33 16.68 -40.66 15.36 -41 14 C-37.5647952 11.70986347 -36.014669 11.82157027 -32 12 C-31.67 11.01 -31.34 10.02 -31 9 C-30.01 9 -29.02 9 -28 9 C-28 8.34 -28 7.68 -28 7 C-27.01 7 -26.02 7 -25 7 C-25 6.01 -25 5.02 -25 4 C-23.92621094 4.04640625 -22.85242188 4.0928125 -21.74609375 4.140625 C-13.74217846 4.38094899 -6.5549836 0 0 0 Z " fill="#CECFCC" transform="translate(114,27)"/>
<path d="M0 0 C7.92 0 15.84 0 24 0 C16.75 9.66666667 16.75 9.66666667 13 13 C12.34 13 11.68 13 11 13 C11.165 12.360625 11.33 11.72125 11.5 11.0625 C12.03926667 9.19173179 12.03926667 9.19173179 12 8 C10.02 8.99 10.02 8.99 8 10 C8.33 8.68 8.66 7.36 9 6 C4.05 6.33 -0.9 6.66 -6 7 C-5.67 5.68 -5.34 4.36 -5 3 C-3.68 3 -2.36 3 -1 3 C-0.67 2.01 -0.34 1.02 0 0 Z " fill="#D3D4D1" transform="translate(136,0)"/>
<path d="M0 0 C1.5 1.125 1.5 1.125 3 3 C3.1875 6.1875 3.1875 6.1875 3 9 C3.66 9 4.32 9 5 9 C5.495 12.465 5.495 12.465 6 16 C5.360625 15.195625 4.72125 14.39125 4.0625 13.5625 C2.59396498 11.7249496 2.59396498 11.7249496 1 10 C-0.98935282 9.86577815 -2.98313909 9.79637123 -4.9765625 9.75390625 C-6.20503906 9.72103516 -7.43351562 9.68816406 -8.69921875 9.65429688 C-11.29289244 9.59364878 -13.88664551 9.53629561 -16.48046875 9.48242188 C-22.64100815 9.31218799 -28.1934157 9.15349297 -34 7 C-34 6.34 -34 5.68 -34 5 C-34.99 4.67 -35.98 4.34 -37 4 C-37 3.34 -37 2.68 -37 2 C-34.21176345 0.9673198 -33.1322726 0.95490707 -30.25 1.9375 C-29.5075 2.288125 -28.765 2.63875 -28 3 C-28 3.66 -28 4.32 -28 5 C-27.33613281 4.98839844 -26.67226563 4.97679688 -25.98828125 4.96484375 C-24.66376953 4.95130859 -24.66376953 4.95130859 -23.3125 4.9375 C-22.44238281 4.92589844 -21.57226562 4.91429688 -20.67578125 4.90234375 C-18 5 -18 5 -15.48828125 5.546875 C-12.69294035 6.05591667 -10.65793017 5.84440561 -7.875 5.3125 C-6.60269531 5.09013672 -6.60269531 5.09013672 -5.3046875 4.86328125 C-2.48904398 3.808608 -1.56675643 2.51397846 0 0 Z " fill="#70706E" transform="translate(53,103)"/>
<path d="M0 0 C4.34263862 -0.16702456 7.20960634 -0.12999997 11 2 C10.85795259 3.58367747 10.71119847 5.16693318 10.5625 6.75 C10.48128906 7.63171875 10.40007812 8.5134375 10.31640625 9.421875 C9.76907895 13.88157895 9.76907895 13.88157895 9 16 C8.01 16.66 7.02 17.32 6 18 C5.67 18.99 5.34 19.98 5 21 C0.62021644 23.81557515 -2.82603012 24.6706998 -8 24 C-10.4375 22 -10.4375 22 -12 20 C-11.484375 20.165 -10.96875 20.33 -10.4375 20.5 C-7.00953761 21.20317177 -4.50353622 21.48324638 -1 21 C4.74149704 16.8607812 6.48309226 10.6131855 8 4 C7.38125 3.855625 6.7625 3.71125 6.125 3.5625 C4 3 4 3 2 2 C2.02320312 2.67546875 2.04640625 3.3509375 2.0703125 4.046875 C2.09738281 5.38492188 2.09738281 5.38492188 2.125 6.75 C2.14820312 7.63171875 2.17140625 8.5134375 2.1953125 9.421875 C1.99139502 12.1135858 1.36551721 13.69904974 0 16 C-1.98 16 -3.96 16 -6 16 C-6 15.34 -6 14.68 -6 14 C-4.68 14 -3.36 14 -2 14 C-2.33 12.68 -2.66 11.36 -3 10 C-2.34 10 -1.68 10 -1 10 C-0.67 6.7 -0.34 3.4 0 0 Z " fill="#A6A6A4" transform="translate(104,59)"/>
<path d="M0 0 C1.32 0 2.64 0 4 0 C4 1.65 4 3.3 4 5 C3.34 5 2.68 5 2 5 C4.5570098 8.9135646 4.5570098 8.9135646 8.72900391 10.64038086 C12.06622445 11.00728083 15.35536819 11.20865861 18.7109375 11.31640625 C20.57685547 11.37924805 20.57685547 11.37924805 22.48046875 11.44335938 C24.40826172 11.50233398 24.40826172 11.50233398 26.375 11.5625 C27.68339844 11.60568359 28.99179687 11.64886719 30.33984375 11.69335938 C33.55979797 11.79912429 36.77982531 11.90121579 40 12 C40 12.33 40 12.66 40 13 C-1.54493736 13.25593981 -1.54493736 13.25593981 -14 11 C-14 9.68 -14 8.36 -14 7 C-13.24074219 6.93941406 -12.48148438 6.87882812 -11.69921875 6.81640625 C-10.70535156 6.73261719 -9.71148437 6.64882812 -8.6875 6.5625 C-7.70136719 6.48128906 -6.71523437 6.40007812 -5.69921875 6.31640625 C-2.90624401 6.08187441 -2.90624401 6.08187441 0 5 C0 3.35 0 1.7 0 0 Z " fill="#B7B7B5" transform="translate(14,100)"/>
<path d="M0 0 C0 3.3 0 6.6 0 10 C-1.1240625 9.81566406 -2.248125 9.63132812 -3.40625 9.44140625 C-8.22434171 8.83914479 -12.70736089 9.30914911 -17.5 9.9375 C-18.32242188 10.03740234 -19.14484375 10.13730469 -19.9921875 10.24023438 C-21.99586299 10.48486917 -23.99810383 10.74120787 -26 11 C-25.34 10.67 -24.68 10.34 -24 10 C-24 8.68 -24 7.36 -24 6 C-22.99839844 5.73445313 -21.99679688 5.46890625 -20.96484375 5.1953125 C-19.62238679 4.83857569 -18.27993939 4.48180293 -16.9375 4.125 C-16.28072266 3.95097656 -15.62394531 3.77695313 -14.94726562 3.59765625 C-11.66253798 2.72388633 -8.38992156 1.82596151 -5.12890625 0.8671875 C-2 0 -2 0 0 0 Z " fill="#BABBB8" transform="translate(200,62)"/>
<path d="M0 0 C-1.28813342 0.83878455 -2.58063256 1.67086783 -3.875 2.5 C-4.59429687 2.9640625 -5.31359375 3.428125 -6.0546875 3.90625 C-8 5 -8 5 -10 5 C-10 5.66 -10 6.32 -10 7 C-12.31 7.66 -14.62 8.32 -17 9 C-17 9.66 -17 10.32 -17 11 C-17.61746094 11.30292969 -18.23492188 11.60585937 -18.87109375 11.91796875 C-24.04908019 14.47937757 -29.07247196 17.14798088 -33.9921875 20.1796875 C-36.42540614 21.17380407 -37.57116822 20.88222141 -40 20 C-38.1875 18 -38.1875 18 -36 16 C-35.01 16 -34.02 16 -33 16 C-33 15.34 -33 14.68 -33 14 C-30.69 13.34 -28.38 12.68 -26 12 C-26 11.34 -26 10.68 -26 10 C-24.02 9.34 -22.04 8.68 -20 8 C-20 7.34 -20 6.68 -20 6 C-19.45730469 5.73445312 -18.91460938 5.46890625 -18.35546875 5.1953125 C-17.64003906 4.84210938 -16.92460937 4.48890625 -16.1875 4.125 C-15.12595703 3.60292969 -15.12595703 3.60292969 -14.04296875 3.0703125 C-11.78753582 1.9343514 -11.78753582 1.9343514 -9 0 C-2.50632911 -1.25316456 -2.50632911 -1.25316456 0 0 Z " fill="#888987" transform="translate(43,162)"/>
<path d="M0 0 C2.475 0.99 2.475 0.99 5 2 C5 2.66 5 3.32 5 4 C5.7425 4.28875 6.485 4.5775 7.25 4.875 C9.56739797 5.82302644 11.77917115 6.84845911 14 8 C14 8.66 14 9.32 14 10 C10.625 10.625 10.625 10.625 7 11 C6.34 10.34 5.68 9.68 5 9 C4.67 10.65 4.34 12.3 4 14 C4.66 14 5.32 14 6 14 C5.67 15.65 5.34 17.3 5 19 C3.68 19 2.36 19 1 19 C0.67 19.66 0.34 20.32 0 21 C0 14.07 0 7.14 0 0 Z " fill="#D8D8D6" transform="translate(0,23)"/>
<path d="M0 0 C0.33 1.32 0.66 2.64 1 4 C3.31 4.33 5.62 4.66 8 5 C8 5.99 8 6.98 8 8 C8.99 8 9.98 8 11 8 C11 8.66 11 9.32 11 10 C12.423125 10.2165625 12.423125 10.2165625 13.875 10.4375 C17 11 17 11 19 12 C19 12.66 19 13.32 19 14 C1.14350797 12.25740319 1.14350797 12.25740319 -7 9 C-7 9.66 -7 10.32 -7 11 C-6.01 11.33 -5.02 11.66 -4 12 C-5.32 12 -6.64 12 -8 12 C-8 10.68 -8 9.36 -8 8 C-5.69 8 -3.38 8 -1 8 C-1 7.34 -1 6.68 -1 6 C-1.99 5.67 -2.98 5.34 -4 5 C-4 4.01 -4 3.02 -4 2 C-2.68 2.33 -1.36 2.66 0 3 C0 2.01 0 1.02 0 0 Z " fill="#D1D2D1" transform="translate(165,134)"/>
<path d="M0 0 C1.60407328 -0.02708567 3.2082785 -0.04643483 4.8125 -0.0625 C5.70582031 -0.07410156 6.59914062 -0.08570312 7.51953125 -0.09765625 C10 0 10 0 13 1 C13 4 13 4 10.875 6.1875 C7.58442458 8.2619932 5.81365679 8.35475877 2 8 C1.34 9.32 0.68 10.64 0 12 C-0.33 11.34 -0.66 10.68 -1 10 C-3.02463255 9.34786708 -3.02463255 9.34786708 -5 9 C-3.68 9 -2.36 9 -1 9 C-1 8.01 -1 7.02 -1 6 C-1.99 6 -2.98 6 -4 6 C-4.66 4.68 -5.32 3.36 -6 2 C-4.35 2 -2.7 2 -1 2 C-0.67 1.34 -0.34 0.68 0 0 Z " fill="#D5D6D4" transform="translate(177,0)"/>
<path d="M0 0 C0 4.29 0 8.58 0 13 C-1.32 13 -2.64 13 -4 13 C-4 12.34 -4 11.68 -4 11 C-5.98 11.66 -7.96 12.32 -10 13 C-10 11.68 -10 10.36 -10 9 C-11.98 9 -13.96 9 -16 9 C-4.63157895 0 -4.63157895 0 0 0 Z " fill="#D2D2D0" transform="translate(200,18)"/>
<path d="M0 0 C1.98 0.66 3.96 1.32 6 2 C5.31574201 8.81465098 3.75617449 13.57047585 -1.0546875 18.5625 C-3 20 -3 20 -6.8125 20.625 C-10 20 -10 20 -12 18 C-10.02 18.33 -8.04 18.66 -6 19 C-6.33 17.68 -6.66 16.36 -7 15 C-5.35 14.67 -3.7 14.34 -2 14 C-2.33 13.01 -2.66 12.02 -3 11 C-2.34 10.67 -1.68 10.34 -1 10 C-0.53248212 7.64400765 -0.53248212 7.64400765 -0.375 4.9375 C-0.30023438 4.01839844 -0.22546875 3.09929687 -0.1484375 2.15234375 C-0.09945312 1.44207031 -0.05046875 0.73179688 0 0 Z " fill="#D8D8D6" transform="translate(106,61)"/>
<path d="M0 0 C0.66 0 1.32 0 2 0 C2 0.99 2 1.98 2 3 C2.66 3 3.32 3 4 3 C4 2.34 4 1.68 4 1 C4.66 1 5.32 1 6 1 C5.30058404 4.14737182 4.23921302 7.02588876 3 10 C2.34 10 1.68 10 1 10 C1 10.99 1 11.98 1 13 C1.66 13.33 2.32 13.66 3 14 C2.34 14 1.68 14 1 14 C0.95101562 15.25296875 0.90203125 16.5059375 0.8515625 17.796875 C0.77651417 19.44793821 0.70096723 21.09897881 0.625 22.75 C0.5940625 23.575 0.563125 24.4 0.53125 25.25 C0.49257812 26.04921875 0.45390625 26.8484375 0.4140625 27.671875 C0.36693115 28.77160645 0.36693115 28.77160645 0.31884766 29.89355469 C-0.03772523 32.24922918 -0.83662883 33.93450591 -2 36 C-2.99 35.67 -3.98 35.34 -5 35 C-5 33.68 -5 32.36 -5 31 C-4.34 30.67 -3.68 30.34 -3 30 C-3.02320312 29.27554688 -3.04640625 28.55109375 -3.0703125 27.8046875 C-3.08835937 26.83789062 -3.10640625 25.87109375 -3.125 24.875 C-3.14820312 23.92367187 -3.17140625 22.97234375 -3.1953125 21.9921875 C-2.98002939 18.69405033 -2.05194817 16.12396731 -1 13 C-0.72419137 10.71547193 -0.5156214 8.42181617 -0.375 6.125 C-0.30023438 4.97257812 -0.22546875 3.82015625 -0.1484375 2.6328125 C-0.09945312 1.76398438 -0.05046875 0.89515625 0 0 Z " fill="#C1C1C2" transform="translate(129,103)"/>
<path d="M0 0 C3.96 0 7.92 0 12 0 C12.33 0.66 12.66 1.32 13 2 C14.32 2 15.64 2 17 2 C17 3.98 17 5.96 17 8 C15.35 8 13.7 8 12 8 C12 8.66 12 9.32 12 10 C11.01 10 10.02 10 9 10 C9 8.68 9 7.36 9 6 C7.35 6.33 5.7 6.66 4 7 C4 6.01 4 5.02 4 4 C2.35 4 0.7 4 -1 4 C-0.67 2.68 -0.34 1.36 0 0 Z " fill="#B0B0B0" transform="translate(183,140)"/>
<path d="M0 0 C2.91517292 1.07401108 4.77810176 1.77810176 7 4 C8.2684375 4.2475 8.2684375 4.2475 9.5625 4.5 C10.7690625 4.7475 10.7690625 4.7475 12 5 C12.33 5.66 12.66 6.32 13 7 C14.64363134 7.72159424 16.31050386 8.39351421 18 9 C18 9.99 18 10.98 18 12 C19.96876633 13.69630313 21.88673162 15.19536118 24 16.6875 C24.57234375 17.10322266 25.1446875 17.51894531 25.734375 17.94726562 C27.14996532 18.97356861 28.57419631 19.98793399 30 21 C29.01 21.33 28.02 21.66 27 22 C25 21 25 21 23.3125 19 C20.30106992 16.39551993 17.90042808 16.30003293 14 16 C13.67 14.68 13.34 13.36 13 12 C12.34 12 11.68 12 11 12 C10.7525 11.38125 10.505 10.7625 10.25 10.125 C8.79371361 7.64931313 7.62187494 7.04874998 5 6 C4.67 6.66 4.34 7.32 4 8 C2.68 5.36 1.36 2.72 0 0 Z " fill="#ACADAB" transform="translate(139,158)"/>
<path d="M0 0 C1.32 0.33 2.64 0.66 4 1 C3.67 2.32 3.34 3.64 3 5 C4.98 4.67 6.96 4.34 9 4 C8.67 4.99 8.34 5.98 8 7 C5.9375 7.6875 5.9375 7.6875 4 8 C4 8.66 4 9.32 4 10 C-1.27913453 12.08386889 -6.39538469 12.57910004 -12 13 C-12 12.34 -12 11.68 -12 11 C-10.35 10.67 -8.7 10.34 -7 10 C-7 9.34 -7 8.68 -7 8 C-5.68 7.34 -4.36 6.68 -3 6 C-3.66 5.67 -4.32 5.34 -5 5 C-5 4.34 -5 3.68 -5 3 C-3.35 3 -1.7 3 0 3 C0 2.01 0 1.02 0 0 Z " fill="#D9DAD7" transform="translate(45,150)"/>
<path d="M0 0 C0.33 0.66 0.66 1.32 1 2 C3.12576782 2.46651207 3.12576782 2.46651207 5.5625 2.625 C6.38878906 2.69976562 7.21507812 2.77453125 8.06640625 2.8515625 C8.70449219 2.90054688 9.34257812 2.94953125 10 3 C10 3.99 10 4.98 10 6 C7.69 6 5.38 6 3 6 C3 9.96 3 13.92 3 18 C2.01 18 1.02 18 0 18 C-1.49821059 14.62902617 -2 12.79557881 -2 9 C-2.66 9 -3.32 9 -4 9 C-4 8.01 -4 7.02 -4 6 C-3.34 6 -2.68 6 -2 6 C-1.34 4.02 -0.68 2.04 0 0 Z " fill="#70706F" transform="translate(134,107)"/>
<path d="M0 0 C-0.020625 0.804375 -0.04125 1.60875 -0.0625 2.4375 C-0.29633621 4.93354885 -0.29633621 4.93354885 1 6 C1.07179964 7.51928038 1.08392007 9.04167482 1.0625 10.5625 C1.05347656 11.38878906 1.04445313 12.21507812 1.03515625 13.06640625 C1.02355469 13.70449219 1.01195313 14.34257813 1 15 C0.34 15 -0.32 15 -1 15 C-1.66 12.36 -2.32 9.72 -3 7 C-3.33 7.33 -3.66 7.66 -4 8 C-6.01594582 8.23427778 -8.038474 8.41336124 -10.0625 8.5625 C-11.16722656 8.64628906 -12.27195312 8.73007812 -13.41015625 8.81640625 C-14.26480469 8.87699219 -15.11945313 8.93757813 -16 9 C-16 8.01 -16 7.02 -16 6 C-16.66 6 -17.32 6 -18 6 C-18 5.34 -18 4.68 -18 4 C-17.43152344 4.04640625 -16.86304687 4.0928125 -16.27734375 4.140625 C-9.75912477 4.44531637 -5.54909899 0 0 0 Z " fill="#A5A6A3" transform="translate(114,27)"/>
<path d="M0 0 C4.0144599 1.3381533 5.35766442 3.76313892 8 7 C8.99 7.66 9.98 8.32 11 9 C11 9.66 11 10.32 11 11 C7.9167365 12.54163175 5.39121901 12.29747535 2 12 C0.25 10.0625 0.25 10.0625 -1 8 C-1.99 7.67 -2.98 7.34 -4 7 C-4.33 7.66 -4.66 8.32 -5 9 C-6 8 -6 8 -6.0625 4.9375 C-6.041875 3.968125 -6.02125 2.99875 -6 2 C-3.525 3.485 -3.525 3.485 -1 5 C-0.67 3.35 -0.34 1.7 0 0 Z " fill="#A7A8A5" transform="translate(145,171)"/>
<path d="M0 0 C2.64 0 5.28 0 8 0 C8 1.65 8 3.3 8 5 C8.598125 5.268125 9.19625 5.53625 9.8125 5.8125 C11.97224808 6.98493467 13.35790256 8.19369282 15 10 C14.01 10.495 14.01 10.495 13 11 C12.01 10.67 11.02 10.34 10 10 C10 9.01 10 8.02 10 7 C7.74971671 7.14139481 5.49977794 7.28828003 3.25 7.4375 C1.99703125 7.51871094 0.7440625 7.59992188 -0.546875 7.68359375 C-3.18317553 7.92515522 -5.48037294 8.24283934 -8 9 C-7.875 7.1875 -7.875 7.1875 -7 5 C-5.03384339 3.9349985 -3.03273074 2.93166826 -1 2 C-0.67 1.34 -0.34 0.68 0 0 Z " fill="#D1D2D0" transform="translate(8,152)"/>
<path d="M0 0 C0.99 0 1.98 0 3 0 C3.06058594 0.71027344 3.12117188 1.42054687 3.18359375 2.15234375 C3.30927734 3.53099609 3.30927734 3.53099609 3.4375 4.9375 C3.51871094 5.85402344 3.59992188 6.77054687 3.68359375 7.71484375 C3.76044976 9.96159732 3.76044976 9.96159732 5 11 C5.17830165 12.93208837 5.26793417 14.87271372 5.3125 16.8125 C5.34988281 17.87082031 5.38726562 18.92914063 5.42578125 20.01953125 C5 23 5 23 3.24609375 25.33984375 C0.87365963 27.09338201 -0.34906721 27.55660448 -3.25 27.75 C-4.4875 27.8325 -5.725 27.915 -7 28 C-7.33 27.01 -7.66 26.02 -8 25 C-10.10584438 24.19436362 -10.10584438 24.19436362 -12.5625 23.8125 C-13.80193359 23.57466797 -13.80193359 23.57466797 -15.06640625 23.33203125 C-16.02353516 23.16767578 -16.02353516 23.16767578 -17 23 C-17 22.67 -17 22.34 -17 22 C-15.44539063 22.12568359 -15.44539063 22.12568359 -13.859375 22.25390625 C-12.48960868 22.35710782 -11.11981553 22.45995374 -9.75 22.5625 C-9.06808594 22.61857422 -8.38617188 22.67464844 -7.68359375 22.73242188 C-4.20387299 22.9857996 -1.34396109 22.95864522 2 22 C1.85895309 19.08302989 1.71235186 16.1665198 1.5625 13.25 C1.52318359 12.425 1.48386719 11.6 1.44335938 10.75 C1.40146484 9.95078125 1.35957031 9.1515625 1.31640625 8.328125 C1.27974854 7.5949707 1.24309082 6.86181641 1.20532227 6.10644531 C0.99885215 3.98822395 0.56867914 2.0480544 0 0 Z " fill="#B3B3B1" transform="translate(80,66)"/>
<path d="M0 0 C0.99 0 1.98 0 3 0 C4.2063366 5.22745859 3.75612577 9.76528314 3 15 C2.34 15 1.68 15 1 15 C1 13.68 1 12.36 1 11 C-1.24071094 12.00445663 -2.87754985 12.87754985 -4.625 14.625 C-5.07875 15.07875 -5.5325 15.5325 -6 16 C-6.66 16 -7.32 16 -8 16 C-7.42415568 13.61435923 -6.77772405 11.33317216 -6 9 C-5.01 9 -4.02 9 -3 9 C-2.67 8.34 -2.34 7.68 -2 7 C-1.67 7 -1.34 7 -1 7 C-0.67 4.69 -0.34 2.38 0 0 Z " fill="#C4C5C4" transform="translate(128,139)"/>
<path d="M0 0 C0.33 1.32 0.66 2.64 1 4 C0.48953125 4.27972656 -0.0209375 4.55945313 -0.546875 4.84765625 C-6.24292082 7.98856095 -11.83519249 11.27352103 -17.3984375 14.64453125 C-20 16 -20 16 -23 16 C-21.50237205 11.50711614 -17.97310586 9.20806237 -14 7 C-11.17628276 5.88941665 -8.3464601 4.9054469 -5.453125 3.9921875 C-2.96984149 2.98780213 -1.71391211 2.02241629 0 0 Z " fill="#A8A9A7" transform="translate(199,14)"/>
<path d="M0 0 C2.97 0 5.94 0 9 0 C10.4783226 2.95664519 10.06032783 5.74229737 10 9 C6.6875 9.25 6.6875 9.25 3 9 C1.0625 7.3125 1.0625 7.3125 0 5 C-0.1875 2.25 -0.1875 2.25 0 0 Z " fill="#BDBDBB" transform="translate(42,174)"/>
<path d="M0 0 C2.475 0.99 2.475 0.99 5 2 C5 2.66 5 3.32 5 4 C7.475 4.99 7.475 4.99 10 6 C10 6.66 10 7.32 10 8 C11.423125 7.938125 11.423125 7.938125 12.875 7.875 C16 8 16 8 18 10 C12.39 10 6.78 10 1 10 C1.66 9.67 2.32 9.34 3 9 C2.505 8.62875 2.01 8.2575 1.5 7.875 C-0.59755514 5.25305607 -0.21743835 3.26157528 0 0 Z " fill="#DDDDDB" transform="translate(153,173)"/>
<path d="M0 0 C0 2.97 0 5.94 0 9 C-0.99 8.67 -1.98 8.34 -3 8 C-3 7.01 -3 6.02 -3 5 C-5.64 5.33 -8.28 5.66 -11 6 C-11 5.01 -11 4.02 -11 3 C-12.32 3.33 -13.64 3.66 -15 4 C-15 3.01 -15 2.02 -15 1 C-9.9752761 0.37470103 -5.07471573 -0.13012092 0 0 Z " fill="#D6D6D6" transform="translate(200,133)"/>
<path d="M0 0 C0.83402344 0.0721875 1.66804687 0.144375 2.52734375 0.21875 C9.04508807 0.75629592 15.46088617 1.11083244 22 1 C21.67 1.66 21.34 2.32 21 3 C18.35139573 3.59355614 15.70802678 3.74209269 13 4 C13 4.66 13 5.32 13 6 C10.03 6 7.06 6 4 6 C3.67 5.34 3.34 4.68 3 4 C2.01 3.67 1.02 3.34 0 3 C0 2.01 0 1.02 0 0 Z " fill="#C1C1C0" transform="translate(168,124)"/>
<path d="M0 0 C2.66044627 5.13086066 4.32312189 8.86534485 3.7578125 14.73828125 C3.66113281 15.80498047 3.56445312 16.87167969 3.46484375 17.97070312 C3.29662109 19.62489258 3.29662109 19.62489258 3.125 21.3125 C3.02058594 22.43462891 2.91617188 23.55675781 2.80859375 24.71289062 C2.54987498 27.47647752 2.27999107 30.23850077 2 33 C1.34 33 0.68 33 0 33 C0 25.74 0 18.48 0 11 C0.66 11 1.32 11 2 11 C1.484375 9.9275 0.96875 8.855 0.4375 7.75 C-0.63240282 5.28522388 -1.03572782 4.27867697 -0.6875 1.5625 C-0.460625 1.046875 -0.23375 0.53125 0 0 Z " fill="#A0A1A0" transform="translate(70,145)"/>
<path d="M0 0 C1.65 0 3.3 0 5 0 C5 1.32 5 2.64 5 4 C6.32 4.33 7.64 4.66 9 5 C9 5.66 9 6.32 9 7 C8.01 7 7.02 7 6 7 C6.33 9.97 6.66 12.94 7 16 C6.34 16 5.68 16 5 16 C5 14.68 5 13.36 5 12 C4.01 12 3.02 12 2 12 C2 10.35 2 8.7 2 7 C2.66 7 3.32 7 4 7 C4 6.34 4 5.68 4 5 C-0.29 4.67 -4.58 4.34 -9 4 C-8.67 3.34 -8.34 2.68 -8 2 C-5.35139573 1.40644386 -2.70802678 1.25790731 0 1 C0 0.67 0 0.34 0 0 Z " fill="#C3C5C2" transform="translate(13,88)"/>
<path d="M0 0 C-1 3 -1 3 -4.5 4.875 C-5.21671875 5.20628906 -5.9334375 5.53757813 -6.671875 5.87890625 C-9.8813073 7.42438791 -12.88697228 9.28319702 -15.921875 11.14453125 C-18.40255644 12.16571402 -19.52415166 11.90892631 -22 11 C-20.1875 9 -20.1875 9 -18 7 C-17.01 7 -16.02 7 -15 7 C-15 6.34 -15 5.68 -15 5 C-12.69 4.34 -10.38 3.68 -8 3 C-8 2.34 -8 1.68 -8 1 C-5.29120665 -0.35439668 -2.99066732 -0.06501451 0 0 Z " fill="#858684" transform="translate(25,171)"/>
<path d="M0 0 C3 2 3 2 3.8125 5.875 C4.1221501 9.15014529 3.96077495 11.23184713 2 14 C2 13.01 2 12.02 2 11 C0.68 11.33 -0.64 11.66 -2 12 C-2 10.68 -2 9.36 -2 8 C-2.598125 8.66 -3.19625 9.32 -3.8125 10 C-6 12 -6 12 -9 12 C-9 11.34 -9 10.68 -9 10 C-8.01 10 -7.02 10 -6 10 C-5.67 8.68 -5.34 7.36 -5 6 C-4.01 6 -3.02 6 -2 6 C-1.855625 5.38125 -1.71125 4.7625 -1.5625 4.125 C-1 2 -1 2 0 0 Z " fill="#CDCDCD" transform="translate(67,153)"/>
<path d="M0 0 C0.66 0.33 1.32 0.66 2 1 C1.34 3.31 0.68 5.62 0 8 C-0.66 8 -1.32 8 -2 8 C-2.33 8.99 -2.66 9.98 -3 11 C-3 10.34 -3 9.68 -3 9 C-3.99 9 -4.98 9 -6 9 C-6 11.64 -6 14.28 -6 17 C-6.66 17 -7.32 17 -8 17 C-8.268125 16.38125 -8.53625 15.7625 -8.8125 15.125 C-9.95556848 12.7004767 -9.95556848 12.7004767 -13 11 C-12.625 9.0625 -12.625 9.0625 -12 7 C-11.34 6.67 -10.68 6.34 -10 6 C-9.67 6.66 -9.34 7.32 -9 8 C-4.7257442 6.4169423 -2.73468206 3.49431596 0 0 Z " fill="#DADADD" transform="translate(134,130)"/>
<path d="M0 0 C2.97 0 5.94 0 9 0 C9 2.31 9 4.62 9 7 C8.01 7.33 7.02 7.66 6 8 C5.26676204 10.01508358 5.26676204 10.01508358 5 12 C-2.42857143 11 -2.42857143 11 -6 10 C-3.29120665 8.64560332 -0.99066732 8.93498549 2 9 C1.67 8.01 1.34 7.02 1 6 C1.99 5.67 2.98 5.34 4 5 C4.66 5.33 5.32 5.66 6 6 C6 5.01 6 4.02 6 3 C4.35 3 2.7 3 1 3 C0.67 2.01 0.34 1.02 0 0 Z " fill="#ACADAB" transform="translate(191,0)"/>
<path d="M0 0 C1.32 0 2.64 0 4 0 C4 0.66 4 1.32 4 2 C10.44070471 2.10655578 16.62641289 1.96205088 23 1 C19.46937996 4.27384767 15.66079853 4.92041829 11.0625 5.6875 C10.35931641 5.81705078 9.65613281 5.94660156 8.93164062 6.08007812 C5.25159244 6.73193296 1.73733796 7.15358923 -2 7 C-2 6.34 -2 5.68 -2 5 C-0.68 5 0.64 5 2 5 C2 4.34 2 3.68 2 3 C1.34 3 0.68 3 0 3 C0 2.01 0 1.02 0 0 Z " fill="#999997" transform="translate(108,87)"/>
<path d="M0 0 C0 0.66 0 1.32 0 2 C-0.66 2 -1.32 2 -2 2 C-1.34 4.64 -0.68 7.28 0 10 C0.66 9.34 1.32 8.68 2 8 C2.99 8 3.98 8 5 8 C5 5.36 5 2.72 5 0 C5.33 0 5.66 0 6 0 C6.33 3.3 6.66 6.6 7 10 C6.01 9.67 5.02 9.34 4 9 C4 9.66 4 10.32 4 11 C3.34 11 2.68 11 2 11 C2 11.66 2 12.32 2 13 C-0.97 13 -3.94 13 -7 13 C-6.34 12.67 -5.68 12.34 -5 12 C-5.03480469 11.38511719 -5.06960937 10.77023438 -5.10546875 10.13671875 C-5.13253906 9.32847656 -5.15960938 8.52023438 -5.1875 7.6875 C-5.22230469 6.88699219 -5.25710937 6.08648437 -5.29296875 5.26171875 C-5 3 -5 3 -3.61328125 1.20703125 C-2 0 -2 0 0 0 Z " fill="#D6D8D6" transform="translate(67,170)"/>
<path d="M0 0 C-0.66 0 -1.32 0 -2 0 C-2 1.65 -2 3.3 -2 5 C-6.04479388 6.96611502 -8.86885748 7.11331236 -13.3125 6.625 C-14.91544922 6.45871094 -14.91544922 6.45871094 -16.55078125 6.2890625 C-17.76314453 6.14597656 -17.76314453 6.14597656 -19 6 C-19 5.34 -19 4.68 -19 4 C-16.70221327 2.6049152 -15.5207033 1.92561381 -12.8125 2.3125 C-11 3 -11 3 -10 4 C-9.67 3.01 -9.34 2.02 -9 1 C-3.79245283 -1.26415094 -3.79245283 -1.26415094 0 0 Z " fill="#D0D0CE" transform="translate(186,119)"/>
<path d="M0 0 C1.32 0.33 2.64 0.66 4 1 C4.12117188 2.21816406 4.24234375 3.43632812 4.3671875 4.69140625 C4.53613072 6.31513829 4.70541996 7.93883435 4.875 9.5625 C4.95363281 10.36236328 5.03226562 11.16222656 5.11328125 11.98632812 C5.63137418 16.86835763 6.50545842 21.32170807 8 26 C5.53199953 24.84826645 3.95216435 23.95216435 2 22 C1.59952556 19.67724823 1.2602896 17.34260643 1 15 C1.66 15 2.32 15 3 15 C3 10.71 3 6.42 3 2 C2.01 2 1.02 2 0 2 C0 1.34 0 0.68 0 0 Z " fill="#888886" transform="translate(64,130)"/>
<path d="M0 0 C0.66 0.33 1.32 0.66 2 1 C1.67 1.66 1.34 2.32 1 3 C1.66 3 2.32 3 3 3 C3 3.66 3 4.32 3 5 C2.01 5.495 2.01 5.495 1 6 C0.34444881 8.52733235 0.34444881 8.52733235 0 11 C-0.33 10.34 -0.66 9.68 -1 9 C-3.94091587 9.18415432 -3.94091587 9.18415432 -7 10 C-8.33333333 11.83333333 -8.33333333 11.83333333 -9 14 C-9.99 15.485 -9.99 15.485 -11 17 C-11.66 17 -12.32 17 -13 17 C-11.5854292 12.4990929 -9.38169453 10.22798114 -6 7 C-3.95965402 4.70041006 -1.97537259 2.35551302 0 0 Z " fill="#90908E" transform="translate(160,0)"/>
<path d="M0 0 C0.33 2.31 0.66 4.62 1 7 C-1.57213134 8.61949011 -2.67669159 9.04408751 -5.75 8.625 C-6.86375 8.315625 -6.86375 8.315625 -8 8 C-7.125 3.25 -7.125 3.25 -6 1 C-3.911361 0.32624548 -2.19636905 0 0 0 Z " fill="#CDCDCB" transform="translate(159,9)"/>
<path d="M0 0 C0.33 1.32 0.66 2.64 1 4 C2.98 3.01 4.96 2.02 7 1 C8 2 8 2 8.09765625 3.84765625 C8.04882812 6.92382812 8.04882812 6.92382812 8 10 C4.37 9.34 0.74 8.68 -3 8 C-2.34 7.01 -1.68 6.02 -1 5 C-0.61500109 3.34450469 -0.27206865 1.6777567 0 0 Z " fill="#D6D6D4" transform="translate(28,143)"/>
<path d="M0 0 C6.75 3.75 6.75 3.75 9 6 C10.60875 5.690625 10.60875 5.690625 12.25 5.375 C16 5 16 5 19.4375 6.875 C20.283125 7.57625 21.12875 8.2775 22 9 C22 9.33 22 9.66 22 10 C16.21101581 10.20674944 11.57067277 9.59162079 6 8 C6 7.34 6 6.68 6 6 C5.195625 5.7525 4.39125 5.505 3.5625 5.25 C1 4 1 4 0.1875 1.875 C0.125625 1.25625 0.06375 0.6375 0 0 Z " fill="#BFC0BE" transform="translate(157,173)"/>
<path d="M0 0 C1.32 0.33 2.64 0.66 4 1 C4 1.66 4 2.32 4 3 C4.66 3.33 5.32 3.66 6 4 C6 3.01 6 2.02 6 1 C7.65 0.67 9.3 0.34 11 0 C11.33 0.66 11.66 1.32 12 2 C11.34 2 10.68 2 10 2 C10 2.66 10 3.32 10 4 C9.01 4 8.02 4 7 4 C6.67 4.99 6.34 5.98 6 7 C3 9 3 9 0 9 C0 6.03 0 3.06 0 0 Z " fill="#BDBFBF" transform="translate(0,174)"/>
<path d="M0 0 C1.5 1.125 1.5 1.125 3 3 C3.1875 6.1875 3.1875 6.1875 3 9 C3.66 9 4.32 9 5 9 C5.33 11.31 5.66 13.62 6 16 C3.74754119 13.31158141 2.11786042 11.35358125 1 8 C-0.98 8 -2.96 8 -5 8 C-5 7.34 -5 6.68 -5 6 C-4.01 6 -3.02 6 -2 6 C-1.7834375 5.071875 -1.7834375 5.071875 -1.5625 4.125 C-1 2 -1 2 0 0 Z " fill="#686967" transform="translate(53,103)"/>
<path d="M0 0 C1 3 1 3 -0.0625 6 C-2.39702116 9.61474244 -3.95662359 10.60036971 -8 12 C-11.625 12.4375 -11.625 12.4375 -15 12 C-17.4375 10 -17.4375 10 -19 8 C-18.484375 8.165 -17.96875 8.33 -17.4375 8.5 C-13.8761851 9.23052613 -11.66097825 9.61016304 -8 9 C-4.97163903 6.27394477 -2.46976318 3.23314453 0 0 Z " fill="#90918E" transform="translate(111,71)"/>
<path d="M0 0 C1.98 0.66 3.96 1.32 6 2 C5.34 4.97 4.68 7.94 4 11 C2.35 11.33 0.7 11.66 -1 12 C-0.67 8.04 -0.34 4.08 0 0 Z " fill="#DCDCDA" transform="translate(106,61)"/>
<path d="M0 0 C1.65 0.33 3.3 0.66 5 1 C5.33 2.32 5.66 3.64 6 5 C0.06 5.33 -5.88 5.66 -12 6 C-11.67 4.68 -11.34 3.36 -11 2 C-7.37 2.33 -3.74 2.66 0 3 C0 2.01 0 1.02 0 0 Z " fill="#CACAC8" transform="translate(142,1)"/>
<path d="M0 0 C0.66 0.33 1.32 0.66 2 1 C0.625 2.5 0.625 2.5 -1 4 C-1.66 4 -2.32 4 -3 4 C-3 4.66 -3 5.32 -3 6 C-8.27913453 8.08386889 -13.39538469 8.57910004 -19 9 C-19 8.34 -19 7.68 -19 7 C-15.12601577 5.1769486 -12.23517809 5 -8 5 C-7.34 4.34 -6.68 3.68 -6 3 C-5.01 3 -4.02 3 -3 3 C-3 2.34 -3 1.68 -3 1 C-2.01 0.67 -1.02 0.34 0 0 Z " fill="#B8B8B6" transform="translate(52,154)"/>
<path d="M0 0 C3.63 0 7.26 0 11 0 C10.67 1.32 10.34 2.64 10 4 C8.35 4.33 6.7 4.66 5 5 C6.65 5.33 8.3 5.66 10 6 C10 6.33 10 6.66 10 7 C7.36 7 4.72 7 2 7 C2.33 6.01 2.66 5.02 3 4 C2.01 3.67 1.02 3.34 0 3 C0 2.01 0 1.02 0 0 Z " fill="#D3D5D2" transform="translate(0,86)"/>
<path d="M0 0 C1.98 0.66 3.96 1.32 6 2 C5.67 3.32 5.34 4.64 5 6 C6.32 6.33 7.64 6.66 9 7 C9 7.66 9 8.32 9 9 C7.906875 8.979375 6.81375 8.95875 5.6875 8.9375 C2.05615809 8.81455548 2.05615809 8.81455548 -1 10 C-1 8.35 -1 6.7 -1 5 C-0.01 4.67 0.98 4.34 2 4 C2 3.34 2 2.68 2 2 C1.01 2.33 0.02 2.66 -1 3 C-0.67 2.01 -0.34 1.02 0 0 Z " fill="#B1B1AF" transform="translate(161,1)"/>
<path d="M0 0 C2.91517292 1.07401108 4.77810176 1.77810176 7 4 C9.57061311 4.64767793 9.57061311 4.64767793 12 5 C12.103125 5.639375 12.20625 6.27875 12.3125 6.9375 C12.6528125 7.9584375 12.6528125 7.9584375 13 9 C13.99 9.33 14.98 9.66 16 10 C16 10.66 16 11.32 16 12 C11.89041233 10.54955729 8.56741255 8.48889248 5 6 C4.67 6.66 4.34 7.32 4 8 C2.68 5.36 1.36 2.72 0 0 Z " fill="#929592" transform="translate(139,158)"/>
<path d="M0 0 C0.33 0.99 0.66 1.98 1 3 C1.66 3 2.32 3 3 3 C3 3.66 3 4.32 3 5 C4.32 5.33 5.64 5.66 7 6 C7 9.63 7 13.26 7 17 C6.34 16.67 5.68 16.34 5 16 C5 12.7 5 9.4 5 6 C4.01 6 3.02 6 2 6 C1.67 6.66 1.34 7.32 1 8 C0.67 7.01 0.34 6.02 0 5 C-0.99 5 -1.98 5 -3 5 C-3 3.68 -3 2.36 -3 1 C-2.01 0.67 -1.02 0.34 0 0 Z " fill="#C2C3C1" transform="translate(78,60)"/>
<path d="M0 0 C0 1.98 0 3.96 0 6 C-1.41377782 6.36552803 -2.83120576 6.71695495 -4.25 7.0625 C-5.03890625 7.25972656 -5.8278125 7.45695312 -6.640625 7.66015625 C-9.10394822 8.01497267 -10.65604132 7.76877544 -13 7 C-9.38026598 5.68373308 -6.90432869 5 -3 5 C-3 4.34 -3 3.68 -3 3 C-5.31 3.66 -7.62 4.32 -10 5 C-9.67 4.01 -9.34 3.02 -9 2 C-3.21052632 0 -3.21052632 0 0 0 Z " fill="#A1A19F" transform="translate(200,62)"/>
<path d="M0 0 C-0.33 0.99 -0.66 1.98 -1 3 C-3.72265625 4.16796875 -3.72265625 4.16796875 -7.0625 5.1875 C-8.16722656 5.53167969 -9.27195312 5.87585938 -10.41015625 6.23046875 C-11.26480469 6.48441406 -12.11945312 6.73835937 -13 7 C-12.703125 5.14453125 -12.703125 5.14453125 -12 3 C-5.15121951 -1.87317073 -5.15121951 -1.87317073 0 0 Z " fill="#989896" transform="translate(13,154)"/>
<path d="M0 0 C0.99 0.33 1.98 0.66 3 1 C2.67 1.99 2.34 2.98 2 4 C2.66 4.33 3.32 4.66 4 5 C3.01 5 2.02 5 1 5 C1 6.65 1 8.3 1 10 C-0.32 10.33 -1.64 10.66 -3 11 C-3.75 7.75 -3.75 7.75 -4 4 C-2.0625 1.5625 -2.0625 1.5625 0 0 Z " fill="#D5D7D5" transform="translate(118,151)"/>
<path d="M0 0 C4.571279 0.54855348 8.67435795 1.41744803 13 3 C12.67 3.66 12.34 4.32 12 5 C10.37509046 5.02698189 8.75005367 5.04638757 7.125 5.0625 C5.76761719 5.07990234 5.76761719 5.07990234 4.3828125 5.09765625 C2 5 2 5 0 4 C0 2.68 0 1.36 0 0 Z " fill="#A1A1A1" transform="translate(166,134)"/>
<path d="M0 0 C2.31 0 4.62 0 7 0 C7 0.66 7 1.32 7 2 C7.66 2 8.32 2 9 2 C9 2.99 9 3.98 9 5 C3.25 5.125 3.25 5.125 1 4 C0.67 4.66 0.34 5.32 0 6 C-1 3 -1 3 0 0 Z M-3 6 C-2.01 6.33 -1.02 6.66 0 7 C-0.99 7.33 -1.98 7.66 -3 8 C-3 7.34 -3 6.68 -3 6 Z M-5 8 C-3 9 -3 9 -3 9 Z " fill="#D2D3D0" transform="translate(89,31)"/>
<path d="M0 0 C1.32 0 2.64 0 4 0 C4.48756219 6.33830846 4.48756219 6.33830846 2.25 9.375 C0.07220172 10.94785432 -1.36638744 11.62376963 -4 12 C-3.67 10.68 -3.34 9.36 -3 8 C-2.01 8.33 -1.02 8.66 0 9 C0 8.34 0 7.68 0 7 C-0.66 7 -1.32 7 -2 7 C-2 6.34 -2 5.68 -2 5 C-1.34 5 -0.68 5 0 5 C0 3.35 0 1.7 0 0 Z " fill="#C2C2C0" transform="translate(196,7)"/>
<path d="M0 0 C6.625 -0.125 6.625 -0.125 10 1 C9.67 2.32 9.34 3.64 9 5 C5.7 4.67 2.4 4.34 -1 4 C-0.67 2.68 -0.34 1.36 0 0 Z " fill="#929292" transform="translate(183,140)"/>
<path d="M0 0 C0.33 0 0.66 0 1 0 C1.04898438 0.78246094 1.09796875 1.56492187 1.1484375 2.37109375 C1.22320312 3.38300781 1.29796875 4.39492187 1.375 5.4375 C1.47941406 6.95150391 1.47941406 6.95150391 1.5859375 8.49609375 C1.72257812 9.32238281 1.85921875 10.14867188 2 11 C2.66 11.33 3.32 11.66 4 12 C4.625 14.5625 4.625 14.5625 5 17 C3.5199159 16.88637738 2.04089926 16.75877092 0.5625 16.625 C-0.26121094 16.55539063 -1.08492188 16.48578125 -1.93359375 16.4140625 C-2.61550781 16.27742188 -3.29742187 16.14078125 -4 16 C-4.33 15.34 -4.66 14.68 -5 14 C-4.03320312 13.69449219 -4.03320312 13.69449219 -3.046875 13.3828125 C-0.68846128 12.1332065 -0.68846128 12.1332065 -0.390625 9.1796875 C-0.34421875 8.08914062 -0.2978125 6.99859375 -0.25 5.875 C-0.19328125 4.77929688 -0.1365625 3.68359375 -0.078125 2.5546875 C-0.05234375 1.71164063 -0.0265625 0.86859375 0 0 Z " fill="#CCCCCA" transform="translate(85,77)"/>
<path d="M0 0 C6.05840087 0.55076372 11.29322129 1.92890082 17 4 C17.99 4.33 18.98 4.66 20 5 C20 5.66 20 6.32 20 7 C15.02235961 7.35554574 12.37141898 6.27313787 8 4 C5.34979623 3.20781953 2.70200119 2.60562096 0 2 C0 1.34 0 0.68 0 0 Z " fill="#A5A6A4" transform="translate(158,143)"/>
<path d="M0 0 C2.475 0.99 2.475 0.99 5 2 C5 2.66 5 3.32 5 4 C5.66 4 6.32 4 7 4 C6.67 5.98 6.34 7.96 6 10 C4.02 10 2.04 10 0 10 C-0.33 9.01 -0.66 8.02 -1 7 C0.32 6.67 1.64 6.34 3 6 C2.67 5.34 2.34 4.68 2 4 C1.33333333 2.66666667 0.66666667 1.33333333 0 0 Z " fill="#D8D9D7" transform="translate(50,151)"/>
<path d="M0 0 C1.67542976 0.28604898 3.34385343 0.61781233 5 1 C5 1.66 5 2.32 5 3 C6.423125 3.2165625 6.423125 3.2165625 7.875 3.4375 C11 4 11 4 13 5 C13 5.66 13 6.32 13 7 C8.71 6.34 4.42 5.68 0 5 C-0.33 3.68 -0.66 2.36 -1 1 C-0.67 0.67 -0.34 0.34 0 0 Z " fill="#DADADA" transform="translate(171,141)"/>
<path d="M0 0 C2.475 0.495 2.475 0.495 5 1 C4.95875 1.99 4.9175 2.98 4.875 4 C4.8576652 8.23835866 5.85808838 11.93193985 7 16 C5.68 16.33 4.36 16.66 3 17 C2.31798844 11.62915894 1.88478735 6.41499441 2 1 C1.34 0.67 0.68 0.34 0 0 Z " fill="#9D9E9B" transform="translate(56,111)"/>
<path d="M0 0 C0.66 0 1.32 0 2 0 C2 0.99 2 1.98 2 3 C2.66 3 3.32 3 4 3 C4 2.34 4 1.68 4 1 C4.66 1 5.32 1 6 1 C5.29922267 4.153498 4.4158649 7.08961104 3 10 C2.01 10.33 1.02 10.66 0 11 C-1.37432457 7.18243176 -0.67975039 3.92744671 0 0 Z " fill="#BCBDBC" transform="translate(129,103)"/>
<path d="M0 0 C1.32 0.66 2.64 1.32 4 2 C3.01 2.495 3.01 2.495 2 3 C1.34227572 6.02934491 1.34227572 6.02934491 1 9 C0.01 9.33 -0.98 9.66 -2 10 C-2 8.68 -2 7.36 -2 6 C-3.98 6 -5.96 6 -8 6 C-5.33333333 4 -2.66666667 2 0 0 Z " fill="#CCCCCA" transform="translate(192,21)"/>
<path d="M0 0 C1.32 0 2.64 0 4 0 C4 0.66 4 1.32 4 2 C4.66 2 5.32 2 6 2 C5.65120368 5.25543229 4.97866739 6.01873107 2.4375 8.25 C1.633125 8.8275 0.82875 9.405 0 10 C0 6.7 0 3.4 0 0 Z " fill="#CACAC8" transform="translate(0,1)"/>
<path d="M0 0 C0.99 0.33 1.98 0.66 3 1 C2.85795259 2.58367747 2.71119847 4.16693318 2.5625 5.75 C2.48128906 6.63171875 2.40007812 7.5134375 2.31640625 8.421875 C2.03761535 10.69350452 1.61209423 12.79851823 1 15 C-1 14 -1 14 -1.75 12.375 C-2.10912151 8.96334563 -1.05444067 6.22534792 0 3 C-0.99 2.67 -1.98 2.34 -3 2 C-2.01 2 -1.02 2 0 2 C0 1.34 0 0.68 0 0 Z " fill="#BCBCBA" transform="translate(112,60)"/>
<path d="M0 0 C-0.020625 0.804375 -0.04125 1.60875 -0.0625 2.4375 C-0.29633621 4.93354885 -0.29633621 4.93354885 1 6 C1.07179964 7.51928038 1.08392007 9.04167482 1.0625 10.5625 C1.05347656 11.38878906 1.04445313 12.21507812 1.03515625 13.06640625 C1.01775391 14.02353516 1.01775391 14.02353516 1 15 C0.34 15 -0.32 15 -1 15 C-1.36368892 13.39796533 -1.71561952 11.79325797 -2.0625 10.1875 C-2.25972656 9.29417969 -2.45695312 8.40085937 -2.66015625 7.48046875 C-3 5 -3 5 -2 2 C-3.32 2.33 -4.64 2.66 -6 3 C-4.60722783 0.21445565 -3.01148006 0 0 0 Z " fill="#A6A7A5" transform="translate(114,27)"/>
<path d="M0 0 C2.475 0.495 2.475 0.495 5 1 C5 1.66 5 2.32 5 3 C6.65 3 8.3 3 10 3 C10 3.99 10 4.98 10 6 C8.68 6.33 7.36 6.66 6 7 C6 7.66 6 8.32 6 9 C4.35 8.67 2.7 8.34 1 8 C1 7.01 1 6.02 1 5 C1.66 4.67 2.32 4.34 3 4 C3 3.01 3 2.02 3 1 C2.01 0.67 1.02 0.34 0 0 Z " fill="#C5C6C4" transform="translate(187,0)"/>
<path d="M0 0 C0.33 0 0.66 0 1 0 C1.03738281 0.58007812 1.07476562 1.16015625 1.11328125 1.7578125 C1.44364933 5.68336259 1.72317149 8.48893199 3.625 12 C5.5475405 16.19463381 4.81879743 19.5607368 4 24 C3.67 24 3.34 24 3 24 C3 21.03 3 18.06 3 15 C2.01 14.67 1.02 14.34 0 14 C-1.13016601 8.97703996 -0.77916092 5.02125926 0 0 Z " fill="#A4A6A5" transform="translate(133,146)"/>
<path d="M0 0 C7.92 0 15.84 0 24 0 C24.66 1.32 25.32 2.64 26 4 C24.68 3.34 23.36 2.68 22 2 C21.67 2.66 21.34 3.32 21 4 C20.01 3.67 19.02 3.34 18 3 C18 2.34 18 1.68 18 1 C12.06 1 6.12 1 0 1 C0 0.67 0 0.34 0 0 Z " fill="#D0CFCE" transform="translate(31,113)"/>
<path d="M0 0 C0.33 0.66 0.66 1.32 1 2 C0.01 2 -0.98 2 -2 2 C-2 2.66 -2 3.32 -2 4 C-0.02 4 1.96 4 4 4 C4 4.33 4 4.66 4 5 C-0.95 5 -5.9 5 -11 5 C-11.33 4.34 -11.66 3.68 -12 3 C-8.04 2.01 -4.08 1.02 0 0 Z " fill="#878584" transform="translate(50,107)"/>
<path d="M0 0 C5.65394631 -0.34615998 9.03006806 0.56574762 14 3 C13.67 3.66 13.34 4.32 13 5 C5.57142857 4 5.57142857 4 2 3 C2 2.34 2 1.68 2 1 C1.34 0.67 0.68 0.34 0 0 Z " fill="#999997" transform="translate(179,150)"/>
<path d="M0 0 C0.99 0 1.98 0 3 0 C4.2063366 5.22745859 3.75612577 9.76528314 3 15 C2.67 15 2.34 15 2 15 C2 12.36 2 9.72 2 7 C1.01 7 0.02 7 -1 7 C-0.67 4.69 -0.34 2.38 0 0 Z " fill="#AAAAAC" transform="translate(128,139)"/>
<path d="M0 0 C0.33 0 0.66 0 1 0 C1.07347656 0.95712891 1.07347656 0.95712891 1.1484375 1.93359375 C1.22320312 2.75988281 1.29796875 3.58617187 1.375 4.4375 C1.44460937 5.26121094 1.51421875 6.08492187 1.5859375 6.93359375 C1.72257812 7.61550781 1.85921875 8.29742187 2 9 C2.66 9.33 3.32 9.66 4 10 C2.02 10 0.04 10 -2 10 C-1.42415568 7.61435923 -0.77772405 5.33317216 0 3 C-5.94 3.495 -5.94 3.495 -12 4 C-9.60175053 1.60175053 -8.72664782 1.68563796 -5.4375 1.4375 C-2.41952212 1.41550697 -2.41952212 1.41550697 0 0 Z " fill="#C5C5C3" transform="translate(111,33)"/>
<path d="M0 0 C2.475 0.99 2.475 0.99 5 2 C5 2.66 5 3.32 5 4 C5.7425 4.28875 6.485 4.5775 7.25 4.875 C9.56739797 5.82302644 11.77917115 6.84845911 14 8 C14 8.66 14 9.32 14 10 C8.91781973 8.60240043 4.03328438 6.44978893 0 3 C0 2.01 0 1.02 0 0 Z " fill="#B7B7B5" transform="translate(0,23)"/>
<path d="M0 0 C0.125 3.375 0.125 3.375 0 7 C-0.66 7.66 -1.32 8.32 -2 9 C-2.66 7.02 -3.32 5.04 -4 3 C-4.66 3 -5.32 3 -6 3 C-6 2.01 -6 1.02 -6 0 C-3.50907189 -1.24546405 -2.58919267 -0.7767578 0 0 Z " fill="#434343" transform="translate(136,113)"/>
<path d="M0 0 C6.93 0.495 6.93 0.495 14 1 C14 1.99 14 2.98 14 4 C12.22825181 3.91276622 10.45752623 3.80458345 8.6875 3.6875 C7.70136719 3.62949219 6.71523437 3.57148437 5.69921875 3.51171875 C3 3 3 3 0 0 Z " fill="#AAAAA8" transform="translate(167,93)"/>
<path d="M0 0 C4.92307692 4.18461538 4.92307692 4.18461538 5.3125 8.3125 C5.209375 9.199375 5.10625 10.08625 5 11 C4.34 11 3.68 11 3 11 C2.731875 10.38125 2.46375 9.7625 2.1875 9.125 C1.04443152 6.7004767 1.04443152 6.7004767 -2 5 C-1.125 1.125 -1.125 1.125 0 0 Z " fill="#CECECC" transform="translate(123,136)"/>
<path d="M0 0 C0.99 0 1.98 0 3 0 C3 0.99 3 1.98 3 3 C3.99 3.33 4.98 3.66 6 4 C4.8 7.6 4.8 7.6 2 9 C2 11.31 2 13.62 2 16 C1.67 16 1.34 16 1 16 C1.01160156 15.09636719 1.02320313 14.19273438 1.03515625 13.26171875 C1.04417969 12.08222656 1.05320313 10.90273437 1.0625 9.6875 C1.07410156 8.51574219 1.08570313 7.34398438 1.09765625 6.13671875 C1.14899898 2.96940805 1.14899898 2.96940805 0 0 Z " fill="#CDCFCC" transform="translate(127,94)"/>
<path d="M0 0 C1.98 0 3.96 0 6 0 C5.75 1.875 5.75 1.875 5 4 C2.9375 5.25 2.9375 5.25 1 6 C0.01 5.34 -0.98 4.68 -2 4 C-1.34 2.68 -0.68 1.36 0 0 Z " fill="#CFCFCD" transform="translate(192,35)"/>
<path d="M0 0 C0.33 1.32 0.66 2.64 1 4 C-0.43294498 4.84114171 -1.87154405 5.67265687 -3.3125 6.5 C-4.51326172 7.19609375 -4.51326172 7.19609375 -5.73828125 7.90625 C-8 9 -8 9 -11 9 C-10.4375 7.1875 -10.4375 7.1875 -9 5 C-6.69747517 3.93097061 -4.3627974 2.92824183 -2 2 C-1.34 1.34 -0.68 0.68 0 0 Z " fill="#9A9B98" transform="translate(199,14)"/>
<path d="M0 0 C2.97 0 5.94 0 9 0 C9 1.98 9 3.96 9 6 C8.01 6 7.02 6 6 6 C6 5.01 6 4.02 6 3 C4.35 3 2.7 3 1 3 C0.67 2.01 0.34 1.02 0 0 Z " fill="#B5B7B6" transform="translate(191,0)"/>
<path d="M0 0 C2.97 0.495 2.97 0.495 6 1 C5.01 1.495 5.01 1.495 4 2 C4.33 3.32 4.66 4.64 5 6 C3.68 6 2.36 6 1 6 C1 6.66 1 7.32 1 8 C0.34 8 -0.32 8 -1 8 C-0.67 5.36 -0.34 2.72 0 0 Z " fill="#CECECC" transform="translate(97,67)"/>
<path d="M0 0 C3.44756956 1.21130822 5.49405626 2.38510218 8 5 C10.09989652 6.17574711 10.09989652 6.17574711 12 7 C10 7.875 10 7.875 7 8 C4.10933821 6.26346566 1.55843792 4.19022601 -1 2 C-0.67 1.34 -0.34 0.68 0 0 Z " fill="#C6C6C4" transform="translate(161,171)"/>
<path d="M0 0 C1.31602523 0.61754259 2.62773556 1.24428742 3.9375 1.875 C4.66839844 2.22304687 5.39929688 2.57109375 6.15234375 2.9296875 C8 4 8 4 9 6 C8.34 6 7.68 6 7 6 C6.67 6.66 6.34 7.32 6 8 C6 6.68 6 5.36 6 4 C3.66924071 4.95865509 3.66924071 4.95865509 2 8 C2 7.01 2 6.02 2 5 C0.68 4.67 -0.64 4.34 -2 4 C-1.34 2.68 -0.68 1.36 0 0 Z " fill="#C2C5C3" transform="translate(141,162)"/>
<path d="M0 0 C1.65 0 3.3 0 5 0 C4.01 0.495 4.01 0.495 3 1 C3.33 2.98 3.66 4.96 4 7 C2.35 6.67 0.7 6.34 -1 6 C-1.33 5.01 -1.66 4.02 -2 3 C-1.34 3 -0.68 3 0 3 C0 2.01 0 1.02 0 0 Z " fill="#C8CAC7" transform="translate(148,126)"/>
<path d="M0 0 C1.98 0.99 1.98 0.99 4 2 C4 2.66 4 3.32 4 4 C4.99 4.33 5.98 4.66 7 5 C7 5.99 7 6.98 7 8 C6.34 8 5.68 8 5 8 C5 8.99 5 9.98 5 11 C4.34 11 3.68 11 3 11 C2.67 8.36 2.34 5.72 2 3 C1.34 3 0.68 3 0 3 C0 2.01 0 1.02 0 0 Z " fill="#C9C9C7" transform="translate(72,47)"/>
<path d="M0 0 C0.66 0 1.32 0 2 0 C2 0.66 2 1.32 2 2 C6.29 1.34 10.58 0.68 15 0 C15 1.32 15 2.64 15 4 C13.845 3.814375 12.69 3.62875 11.5 3.4375 C7.13610352 2.8764276 3.33266935 3.30367814 -1 4 C-0.67 2.68 -0.34 1.36 0 0 Z " fill="#BBBBB9" transform="translate(185,68)"/>
<path d="M0 0 C1.98 0 3.96 0 6 0 C5.67 1.65 5.34 3.3 5 5 C3.68 5 2.36 5 1 5 C0.67 5.66 0.34 6.32 0 7 C0 4.69 0 2.38 0 0 Z " fill="#C6C7C5" transform="translate(0,37)"/>
<path d="M0 0 C0.33 0.99 0.66 1.98 1 3 C-2.96 3 -6.92 3 -11 3 C-11 2.34 -11 1.68 -11 1 C-7.26562152 0.12132271 -3.83225427 -0.08912219 0 0 Z " fill="#81827F" transform="translate(11,108)"/>
<path d="M0 0 C0.99 0 1.98 0 3 0 C3.06058594 0.66386719 3.12117188 1.32773438 3.18359375 2.01171875 C3.79863507 8.54908081 3.79863507 8.54908081 5 15 C4.01 14.67 3.02 14.34 2 14 C1.93941406 13.32453125 1.87882812 12.6490625 1.81640625 11.953125 C1.73261719 11.06109375 1.64882812 10.1690625 1.5625 9.25 C1.48128906 8.36828125 1.40007812 7.4865625 1.31640625 6.578125 C1.03761535 4.30649548 0.61209423 2.20148177 0 0 Z " fill="#9C9C9A" transform="translate(80,66)"/>
<path d="M0 0 C-0.33 1.32 -0.66 2.64 -1 4 C-4.3 4.33 -7.6 4.66 -11 5 C-7.33938161 1.08692517 -5.5077267 0 0 0 Z " fill="#A5A5A3" transform="translate(185,68)"/>
<path d="M0 0 C1.32 0.33 2.64 0.66 4 1 C4 1.99 4 2.98 4 4 C2.56445975 4.50559908 1.1264798 5.0042749 -0.3125 5.5 C-1.51326172 5.91765625 -1.51326172 5.91765625 -2.73828125 6.34375 C-5 7 -5 7 -8 7 C-8 6.34 -8 5.68 -8 5 C-5.36 4.01 -2.72 3.02 0 2 C0 1.34 0 0.68 0 0 Z " fill="#CDCECC" transform="translate(196,58)"/>
<path d="M0 0 C3.8063457 0.67170806 7.35206816 1.72746564 11 3 C10.67 3.66 10.34 4.32 10 5 C6.7 4.67 3.4 4.34 0 4 C0 2.68 0 1.36 0 0 Z " fill="#C7C7C5" transform="translate(178,11)"/>
<path d="M0 0 C2.31 0 4.62 0 7 0 C6.0625 2 6.0625 2 4 4 C0.97465051 4.36475845 -1.96663814 4.22893297 -5 4 C-5 3.34 -5 2.68 -5 2 C-3.35 2 -1.7 2 0 2 C0 1.34 0 0.68 0 0 Z " fill="#DBDBD8" transform="translate(153,0)"/>
<path d="M0 0 C1.31571603 0.2547514 2.62760376 0.52934141 3.9375 0.8125 C4.66839844 0.96332031 5.39929688 1.11414062 6.15234375 1.26953125 C6.76207031 1.51058594 7.37179688 1.75164063 8 2 C8.33 2.99 8.66 3.98 9 5 C6.03 4.67 3.06 4.34 0 4 C0 2.68 0 1.36 0 0 Z " fill="#C1C2C0" transform="translate(0,62)"/>
<path d="M0 0 C0.721875 0.103125 1.44375 0.20625 2.1875 0.3125 C1.1975 0.8075 1.1975 0.8075 0.1875 1.3125 C0.1875 1.9725 0.1875 2.6325 0.1875 3.3125 C-1.1325 3.3125 -2.4525 3.3125 -3.8125 3.3125 C-4.10125 3.910625 -4.39 4.50875 -4.6875 5.125 C-5.8125 7.3125 -5.8125 7.3125 -7.8125 10.3125 C-8.4725 10.3125 -9.1325 10.3125 -9.8125 10.3125 C-8.22343411 5.25638126 -5.63322205 0.62591356 0 0 Z " fill="#7C7D7A" transform="translate(156.8125,6.6875)"/>
<path d="M0 0 C1.32 0.33 2.64 0.66 4 1 C4.25 3.3125 4.25 3.3125 4 6 C2 7.8125 2 7.8125 0 9 C0 6.03 0 3.06 0 0 Z " fill="#CBCDCC" transform="translate(0,174)"/>
<path d="M0 0 C0.66 0 1.32 0 2 0 C1.67 0.99 1.34 1.98 1 3 C0.67 2.01 0.34 1.02 0 0 Z M-4 2 C-2.68 2.33 -1.36 2.66 0 3 C-0.33 4.65 -0.66 6.3 -1 8 C-1.99 8.33 -2.98 8.66 -4 9 C-4 8.01 -4 7.02 -4 6 C-4.66 5.67 -5.32 5.34 -6 5 C-5.34 5 -4.68 5 -4 5 C-4 4.01 -4 3.02 -4 2 Z " fill="#CECECC" transform="translate(32,157)"/>
<path d="M0 0 C0 2 0 2 -2.25 4.4375 C-4.4312655 6.47004286 -6.56743 8.28819148 -9 10 C-7.65205171 3.50534008 -7.65205171 3.50534008 -4.5 1.0625 C-2 0 -2 0 0 0 Z " fill="#E0E0E3" transform="translate(136,128)"/>
<path d="M0 0 C1.60332791 -0.08121924 3.20784026 -0.13929134 4.8125 -0.1875 C6.15248047 -0.23970703 6.15248047 -0.23970703 7.51953125 -0.29296875 C10 0 10 0 13 3 C8.71 2.67 4.42 2.34 0 2 C0 1.34 0 0.68 0 0 Z " fill="#CFCFCD" transform="translate(155,92)"/>
<path d="M0 0 C0.66 1.32 1.32 2.64 2 4 C1.34 4 0.68 4 0 4 C-0.66 5.65 -1.32 7.3 -2 9 C-2.99 8.67 -3.98 8.34 -5 8 C-5 7.34 -5 6.68 -5 6 C-4.01 6 -3.02 6 -2 6 C-2.33 4.68 -2.66 3.36 -3 2 C-2.01 1.34 -1.02 0.68 0 0 Z " fill="#B5B5B5" transform="translate(134,173)"/>
<path d="M0 0 C1.32 0 2.64 0 4 0 C4 1.65 4 3.3 4 5 C3.34 5 2.68 5 2 5 C2.33 5.99 2.66 6.98 3 8 C1.35 8 -0.3 8 -2 8 C-1.34 7.01 -0.68 6.02 0 5 C0.16713569 2.37468476 0.16713569 2.37468476 0 0 Z " fill="#A6A7A4" transform="translate(14,100)"/>
<path d="M0 0 C2.86724686 0.57344937 3.8614515 0.8614515 6 3 C4 5 4 5 0.5 5.25 C-3 5 -3 5 -5 3 C-2.03 3.495 -2.03 3.495 1 4 C0.67 2.68 0.34 1.36 0 0 Z " fill="#CDCECC" transform="translate(99,76)"/>
<path d="M0 0 C1.32 0.33 2.64 0.66 4 1 C4 1.66 4 2.32 4 3 C0.18243176 4.37432457 -3.07255329 3.67975039 -7 3 C-7 5.64 -7 8.28 -7 11 C-7.33 11 -7.66 11 -8 11 C-8 8.03 -8 5.06 -8 2 C-5.36 2 -2.72 2 0 2 C0 1.34 0 0.68 0 0 Z " fill="#C5C6C4" transform="translate(111,56)"/>
<path d="M0 0 C0.33 0 0.66 0 1 0 C1.33 3.3 1.66 6.6 2 10 C1.01 9.67 0.02 9.34 -1 9 C-1 9.66 -1 10.32 -1 11 C-1.66 11 -2.32 11 -3 11 C-3 11.66 -3 12.32 -3 13 C-3.99 12.67 -4.98 12.34 -6 12 C-4.6875 10 -4.6875 10 -3 8 C-2.01 8 -1.02 8 0 8 C0 5.36 0 2.72 0 0 Z " fill="#BABDBA" transform="translate(72,170)"/>
<path d="M0 0 C0.33 0.99 0.66 1.98 1 3 C3.97 3.495 3.97 3.495 7 4 C7 4.66 7 5.32 7 6 C3.71303767 6.79953138 2.28976808 7.09658936 -1 6 C-1.042721 4.33388095 -1.04063832 2.66617115 -1 1 C-0.67 0.67 -0.34 0.34 0 0 Z " fill="#D2D5D2" transform="translate(153,143)"/>
<path d="M0 0 C0.66 0 1.32 0 2 0 C4.32590854 3.63423209 4.16265833 6.77088331 4 11 C3.34 11 2.68 11 2 11 C1.34 7.37 0.68 3.74 0 0 Z " fill="#4E4E4C" transform="translate(63,134)"/>
<path d="M0 0 C0.66 0 1.32 0 2 0 C2 0.66 2 1.32 2 2 C2.66 2 3.32 2 4 2 C4.33 3.98 4.66 5.96 5 8 C3.68 8.33 2.36 8.66 1 9 C1.33 7.68 1.66 6.36 2 5 C1.34 5 0.68 5 0 5 C0 3.35 0 1.7 0 0 Z " fill="#C2C2C2" transform="translate(122,120)"/>
<path d="M0 0 C-0.33 0.66 -0.66 1.32 -1 2 C-3.14453125 2.66796875 -3.14453125 2.66796875 -5.8125 3.1875 C-6.68519531 3.36667969 -7.55789062 3.54585938 -8.45703125 3.73046875 C-10.97357778 3.99719949 -12.61667355 3.78333107 -15 3 C-9.89665983 1.094753 -5.53657294 -0.42589023 0 0 Z " fill="#C3C3C1" transform="translate(51,106)"/>
<path d="M0 0 C1.32 0.66 2.64 1.32 4 2 C4 2.33 4 2.66 4 3 C2.02 3 0.04 3 -2 3 C-2.66 4.32 -3.32 5.64 -4 7 C-4.33 6.34 -4.66 5.68 -5 5 C-7.02463255 4.34786708 -7.02463255 4.34786708 -9 4 C-7.68 4 -6.36 4 -5 4 C-4.67 3.01 -4.34 2.02 -4 1 C-2.68 1.33 -1.36 1.66 0 2 C0 1.34 0 0.68 0 0 Z " fill="#CFD0CE" transform="translate(181,5)"/>
<path d="M0 0 C1.32 0 2.64 0 4 0 C3.34 1.32 2.68 2.64 2 4 C1.01 4 0.02 4 -1 4 C-1 4.99 -1 5.98 -1 7 C-1.66 7 -2.32 7 -3 7 C-2.25 2.25 -2.25 2.25 0 0 Z " fill="#C6C6C4" transform="translate(84,150)"/>
<path d="M0 0 C3.15207323 0.41113999 5.98104753 0.99368251 9 2 C9 2.66 9 3.32 9 4 C6.69 4 4.38 4 2 4 C2 3.34 2 2.68 2 2 C1.01 1.67 0.02 1.34 -1 1 C-0.67 0.67 -0.34 0.34 0 0 Z " fill="#C7C9C7" transform="translate(35,88)"/>
<path d="M0 0 C1.65 0 3.3 0 5 0 C5 1.65 5 3.3 5 5 C3.35 5 1.7 5 0 5 C0 3.35 0 1.7 0 0 Z " fill="#A8A8A6" transform="translate(95,55)"/>
<path d="M0 0 C0.99 0 1.98 0 3 0 C3 0.66 3 1.32 3 2 C3.99 2 4.98 2 6 2 C5.67 3.32 5.34 4.64 5 6 C0.125 4.25 0.125 4.25 -1 2 C-0.67 1.34 -0.34 0.68 0 0 Z " fill="#C8C8C6" transform="translate(174,176)"/>
<path d="M0 0 C1.98 0 3.96 0 6 0 C5.1875 2.4375 5.1875 2.4375 4 5 C3.01 5.33 2.02 5.66 1 6 C0 5 0 5 -0.0625 2.4375 C-0.041875 1.633125 -0.02125 0.82875 0 0 Z " fill="#C7C7C5" transform="translate(42,174)"/>
<path d="M0 0 C0.66 0 1.32 0 2 0 C2.36923077 6.52307692 2.36923077 6.52307692 0.5 8.9375 C0.005 9.288125 -0.49 9.63875 -1 10 C-2.46726798 6.18510326 -1.43336419 3.70988378 0 0 Z " fill="#616362" transform="translate(137,165)"/>
<path d="M0 0 C0.66 0 1.32 0 2 0 C2.99 3.3 3.98 6.6 5 10 C3.68 9.34 2.36 8.68 1 8 C0.16113831 5.32209537 0.18233586 2.8262059 0 0 Z " fill="#5B5C5B" transform="translate(67,146)"/>
<path d="M0 0 C2.64 0 5.28 0 8 0 C8 0.99 8 1.98 8 3 C5.36 3 2.72 3 0 3 C0 2.01 0 1.02 0 0 Z " fill="#C2C3C0" transform="translate(192,51)"/>
<path d="M0 0 C0 0.99 0 1.98 0 3 C-0.66 3 -1.32 3 -2 3 C-2 3.99 -2 4.98 -2 6 C-2.99 6 -3.98 6 -5 6 C-5.33 4.68 -5.66 3.36 -6 2 C-3 0 -3 0 0 0 Z " fill="#AEB0AE" transform="translate(79,39)"/>
<path d="M0 0 C0.99 0.33 1.98 0.66 3 1 C3 3.31 3 5.62 3 8 C2.01 8 1.02 8 0 8 C0 5.36 0 2.72 0 0 Z " fill="#CBCECB" transform="translate(100,169)"/>
<path d="M0 0 C-0.99 0 -1.98 0 -3 0 C-3.33 0.99 -3.66 1.98 -4 3 C-5.9375 2.6875 -5.9375 2.6875 -8 2 C-8.33 1.01 -8.66 0.02 -9 -1 C-5.22102349 -2.0497157 -3.35080929 -2.10976881 0 0 Z " fill="#CCCCCA" transform="translate(194,158)"/>
<path d="M0 0 C0.33 0.66 0.66 1.32 1 2 C1.66 2.33 2.32 2.66 3 3 C2.01 3.495 2.01 3.495 1 4 C0.31527335 5.88764903 0.31527335 5.88764903 -0.125 8.0625 C-0.29257813 8.79597656 -0.46015625 9.52945313 -0.6328125 10.28515625 C-0.75398437 10.85105469 -0.87515625 11.41695312 -1 12 C-1.66 12 -2.32 12 -3 12 C-2.49202991 7.6822542 -1.80317221 3.96697886 0 0 Z " fill="#7D7D7D" transform="translate(129,114)"/>
<path d="M0 0 C-6.4 4.06153846 -6.4 4.06153846 -9.4375 3.75 C-9.953125 3.5025 -10.46875 3.255 -11 3 C-7.17860188 -0.1390056 -4.83859894 -1.61286631 0 0 Z " fill="#6A6C6C" transform="translate(14,179)"/>
<path d="M0 0 C0.66 1.32 1.32 2.64 2 4 C1.01 4 0.02 4 -1 4 C-0.67 4.99 -0.34 5.98 0 7 C-0.99 7 -1.98 7 -3 7 C-3.66 5.35 -4.32 3.7 -5 2 C-4.01 2 -3.02 2 -2 2 C-1.67 1.67 -1.34 1.34 -1 1 C-0.67 0.67 -0.34 0.34 0 0 Z " fill="#D4D4D4" transform="translate(130,175)"/>
<path d="M0 0 C2.4008063 3.84129009 2.64225559 7.56396935 3 12 C2.67 12.66 2.34 13.32 2 14 C1.34 14 0.68 14 0 14 C0 13.01 0 12.02 0 11 C0.66 11 1.32 11 2 11 C1.484375 9.9275 0.96875 8.855 0.4375 7.75 C-0.63240282 5.28522388 -1.03572782 4.27867697 -0.6875 1.5625 C-0.460625 1.046875 -0.23375 0.53125 0 0 Z " fill="#949494" transform="translate(70,145)"/>
<path d="M0 0 C2.64 0 5.28 0 8 0 C8 0.66 8 1.32 8 2 C7.34 2 6.68 2 6 2 C6 3.32 6 4.64 6 6 C4.02 6 2.04 6 0 6 C1.32 5.34 2.64 4.68 4 4 C4 3.34 4 2.68 4 2 C2.68 1.34 1.36 0.68 0 0 Z " fill="#BFBFBD" transform="translate(8,152)"/>
<path d="M0 0 C2.31 0.33 4.62 0.66 7 1 C5.68 1.33 4.36 1.66 3 2 C3 2.66 3 3.32 3 4 C4.32 4.33 5.64 4.66 7 5 C4.69 4.67 2.38 4.34 0 4 C0 2.68 0 1.36 0 0 Z " fill="#B4B4B4" transform="translate(166,134)"/>
<path d="M0 0 C1.98 0 3.96 0 6 0 C5.67 1.32 5.34 2.64 5 4 C3.35 3.67 1.7 3.34 0 3 C0 2.01 0 1.02 0 0 Z " fill="#CBCCCA" transform="translate(12,129)"/>
<path d="M0 0 C2.38564077 0.57584432 4.66682784 1.22227595 7 2 C7 2.99 7 3.98 7 5 C6.01 5.33 5.02 5.66 4 6 C3.67 5.34 3.34 4.68 3 4 C2.01 3.67 1.02 3.34 0 3 C0 2.01 0 1.02 0 0 Z " fill="#B9B9B8" transform="translate(168,124)"/>
<path d="M0 0 C0.33 0.66 0.66 1.32 1 2 C3.12576782 2.46651207 3.12576782 2.46651207 5.5625 2.625 C6.38878906 2.69976562 7.21507812 2.77453125 8.06640625 2.8515625 C8.70449219 2.90054688 9.34257812 2.94953125 10 3 C10 3.33 10 3.66 10 4 C4.06 4.495 4.06 4.495 -2 5 C-1.34 3.35 -0.68 1.7 0 0 Z " fill="#939393" transform="translate(134,107)"/>
<path d="M0 0 C0.33 0.66 0.66 1.32 1 2 C-2.3 2.33 -5.6 2.66 -9 3 C-9 2.01 -9 1.02 -9 0 C-5.67032582 -0.83241855 -3.24733335 -1.2757381 0 0 Z " fill="#CACAC8" transform="translate(176,72)"/>
<path d="M0 0 C0.66 0 1.32 0 2 0 C1.125 4.75 1.125 4.75 0 7 C-0.99 7 -1.98 7 -3 7 C-2.38722388 4.03824877 -1.74627478 2.61941217 0 0 Z " fill="#CACAC8" transform="translate(117,45)"/>
<path d="M0 0 C3.37503669 1.1858237 5.64722731 2.27573689 8 5 C5.36 5 2.72 5 0 5 C0 3.33333333 0 1.66666667 0 0 Z " fill="#AAAAA8" transform="translate(171,178)"/>
<path d="M0 0 C1.98 0.99 1.98 0.99 4 2 C4 3.65 4 5.3 4 7 C3.01 7 2.02 7 1 7 C0.67 4.69 0.34 2.38 0 0 Z " fill="#C4C7C4" transform="translate(114,155)"/>
<path d="M0 0 C1.32 0 2.64 0 4 0 C4 1.65 4 3.3 4 5 C1.69 4.67 -0.62 4.34 -3 4 C-3 3.34 -3 2.68 -3 2 C-2.01 2 -1.02 2 0 2 C0 1.34 0 0.68 0 0 Z " fill="#434140" transform="translate(51,107)"/>
<path d="M0 0 C2.475 0.495 2.475 0.495 5 1 C5.33 2.32 5.66 3.64 6 5 C4.35 4.67 2.7 4.34 1 4 C0.67 2.68 0.34 1.36 0 0 Z " fill="#BBBBB8" transform="translate(142,1)"/>
<path d="M0 0 C2.5 1.375 2.5 1.375 5 3 C5 3.66 5 4.32 5 5 C4.01 5 3.02 5 2 5 C1.67 5.66 1.34 6.32 1 7 C0 6 0 6 -0.0625 2.9375 C-0.041875 1.968125 -0.02125 0.99875 0 0 Z " fill="#C0C0C0" transform="translate(139,173)"/>
<path d="M0 0 C0.66 0.33 1.32 0.66 2 1 C2 2.98 2 4.96 2 7 C-0.5 5.625 -0.5 5.625 -3 4 C-3 3.34 -3 2.68 -3 2 C-2.01 2 -1.02 2 0 2 C0 1.34 0 0.68 0 0 Z " fill="#858584" transform="translate(143,170)"/>
<path d="M0 0 C0.66 0 1.32 0 2 0 C1.67 1.32 1.34 2.64 1 4 C1.66 4 2.32 4 3 4 C3.66 5.65 4.32 7.3 5 9 C3.35 8.67 1.7 8.34 0 8 C0 5.33333333 0 2.66666667 0 0 Z " fill="#E2E4E1" transform="translate(161,163)"/>
<path d="M0 0 C-2.31 1.32 -4.62 2.64 -7 4 C-7 3.34 -7 2.68 -7 2 C-8.32 1.67 -9.64 1.34 -11 1 C-9.5437328 0.63743142 -8.08488815 0.28520207 -6.625 -0.0625 C-5.40683594 -0.35833984 -5.40683594 -0.35833984 -4.1640625 -0.66015625 C-2 -1 -2 -1 0 0 Z " fill="#989896" transform="translate(43,162)"/>
<path d="M0 0 C2.97 0.495 2.97 0.495 6 1 C6 2.32 6 3.64 6 5 C4.35 4.67 2.7 4.34 1 4 C0.67 2.68 0.34 1.36 0 0 Z " fill="#A8A8A6" transform="translate(194,154)"/>
<path d="M0 0 C0.99 0 1.98 0 3 0 C3 1.65 3 3.3 3 5 C1.35 5 -0.3 5 -2 5 C-1.34 3.35 -0.68 1.7 0 0 Z " fill="#CBCCCA" transform="translate(33,146)"/>
<path d="M0 0 C0.99 0 1.98 0 3 0 C2.67 1.65 2.34 3.3 2 5 C1.34 5 0.68 5 0 5 C-0.33 5.66 -0.66 6.32 -1 7 C-1.04254356 5.00045254 -1.04080783 2.99958364 -1 1 C-0.67 0.67 -0.34 0.34 0 0 Z " fill="#CFD1CE" transform="translate(161,127)"/>
<path d="M0 0 C-2.91985315 2.48728231 -5.14219907 3.71066493 -9 4 C-11.3125 3.0625 -11.3125 3.0625 -13 2 C-4.57142857 -0.28571429 -4.57142857 -0.28571429 0 0 Z " fill="#AFB1AE" transform="translate(131,88)"/>
<path d="M0 0 C0.66 0 1.32 0 2 0 C2.66 2.64 3.32 5.28 4 8 C2.68 7.67 1.36 7.34 0 7 C0 4.69 0 2.38 0 0 Z " fill="#C0C2BF" transform="translate(120,47)"/>
<path d="M0 0 C1.98 0 3.96 0 6 0 C6 0.66 6 1.32 6 2 C6.66 2 7.32 2 8 2 C7.67 2.99 7.34 3.98 7 5 C7 4.34 7 3.68 7 3 C4.69 3 2.38 3 0 3 C0 2.01 0 1.02 0 0 Z " fill="#BBBBB9" transform="translate(90,31)"/>
<path d="M0 0 C-0.33 1.65 -0.66 3.3 -1 5 C-2.65 5 -4.3 5 -6 5 C-6 4.34 -6 3.68 -6 3 C-5.34 3 -4.68 3 -4 3 C-4 2.34 -4 1.68 -4 1 C-2 0 -2 0 0 0 Z " fill="#8F8F8D" transform="translate(112,29)"/>
<path d="M0 0 C0.66 0 1.32 0 2 0 C2.33 2.31 2.66 4.62 3 7 C2.01 7.33 1.02 7.66 0 8 C0 5.36 0 2.72 0 0 Z " fill="#666666" transform="translate(137,175)"/>
<path d="M0 0 C0.66 0.66 1.32 1.32 2 2 C1.01 2 0.02 2 -1 2 C-1 3.65 -1 5.3 -1 7 C-3.475 6.01 -3.475 6.01 -6 5 C-5.34 4.67 -4.68 4.34 -4 4 C-4 3.34 -4 2.68 -4 2 C-2.68 1.34 -1.36 0.68 0 0 Z " fill="#9D9D9B" transform="translate(27,166)"/>
<path d="M0 0 C1.10844919 3.32534757 0.84454356 5.62182575 0 9 C-0.99 8.67 -1.98 8.34 -3 8 C-3 6.68 -3 5.36 -3 4 C-2.34 3.67 -1.68 3.34 -1 3 C-0.67 2.01 -0.34 1.02 0 0 Z " fill="#959594" transform="translate(127,130)"/>
<path d="M0 0 C1.98 0.66 3.96 1.32 6 2 C6 2.66 6 3.32 6 4 C6.66 4.33 7.32 4.66 8 5 C5.69 4.67 3.38 4.34 1 4 C0.67 2.68 0.34 1.36 0 0 Z " fill="#929290" transform="translate(19,104)"/>
<path d="M0 0 C0 0.66 0 1.32 0 2 C-0.66 2 -1.32 2 -2 2 C-2 3.65 -2 5.3 -2 7 C-2.66 6.34 -3.32 5.68 -4 5 C-4 3.68 -4 2.36 -4 1 C-4.66 0.67 -5.32 0.34 -6 0 C-3.50907189 -1.24546405 -2.58919267 -0.7767578 0 0 Z " fill="#D8DAD8" transform="translate(17,93)"/>
<path d="M0 0 C2.97 0 5.94 0 9 0 C8.67 0.99 8.34 1.98 8 3 C2.25 2.25 2.25 2.25 0 0 Z " fill="#B3B3B0" transform="translate(168,0)"/>
<path d="M0 0 C2.475 0.495 2.475 0.495 5 1 C4.67 1.99 4.34 2.98 4 4 C2.68 4 1.36 4 0 4 C0 2.68 0 1.36 0 0 Z " fill="#9FA09E" transform="translate(98,160)"/>
<path d="M0 0 C-0.33 0.99 -0.66 1.98 -1 3 C-2.65 3.33 -4.3 3.66 -6 4 C-6.33 3.01 -6.66 2.02 -7 1 C-4.53721199 -0.231394 -2.7204945 -0.07159196 0 0 Z " fill="#D1D3D1" transform="translate(109,159)"/>
<path d="M0 0 C0.33 0.66 0.66 1.32 1 2 C1.66 2 2.32 2 3 2 C3.33 1.34 3.66 0.68 4 0 C4.33 1.32 4.66 2.64 5 4 C3.02 4 1.04 4 -1 4 C-1.33 3.01 -1.66 2.02 -2 1 C-1.34 0.67 -0.68 0.34 0 0 Z " fill="#CFD0CE" transform="translate(51,157)"/>
<path d="M0 0 C1.9375 0.8125 1.9375 0.8125 4 2 C4.33 2.99 4.66 3.98 5 5 C3.35 4.67 1.7 4.34 0 4 C0 2.68 0 1.36 0 0 Z " fill="#C3C5C3" transform="translate(94,121)"/>
<path d="M0 0 C0.33 0.99 0.66 1.98 1 3 C1.66 3.33 2.32 3.66 3 4 C1.02 4.33 -0.96 4.66 -3 5 C-3 3.68 -3 2.36 -3 1 C-2.01 0.67 -1.02 0.34 0 0 Z " fill="#CECECC" transform="translate(78,60)"/>
<path d="M0 0 C0.66 0.33 1.32 0.66 2 1 C1.67 2.98 1.34 4.96 1 7 C0.01 6.67 -0.98 6.34 -2 6 C-2 4.68 -2 3.36 -2 2 C-1.34 2 -0.68 2 0 2 C0 1.34 0 0.68 0 0 Z " fill="#D7D7D5" transform="translate(120,54)"/>
<path d="M0 0 C1.32 0.66 2.64 1.32 4 2 C2.68 2.33 1.36 2.66 0 3 C0 3.66 0 4.32 0 5 C-1.32 5.33 -2.64 5.66 -4 6 C-4.33 5.34 -4.66 4.68 -5 4 C-3.68 4 -2.36 4 -1 4 C-0.67 2.68 -0.34 1.36 0 0 Z " fill="#D3D3D1" transform="translate(23,165)"/>
<path d="M0 0 C0.99 0.33 1.98 0.66 3 1 C3 2.65 3 4.3 3 6 C2.01 6 1.02 6 0 6 C0 4.02 0 2.04 0 0 Z " fill="#BCBCBA" transform="translate(82,161)"/>
<path d="M0 0 C0 0.99 0 1.98 0 3 C-1.32 3.33 -2.64 3.66 -4 4 C-4 3.34 -4 2.68 -4 2 C-4.66 1.67 -5.32 1.34 -6 1 C-3.92446352 0.4465236 -2.15634036 0 0 0 Z M-5 4 C-3.515 4.99 -3.515 4.99 -2 6 C-2.99 6 -3.98 6 -5 6 C-5 5.34 -5 4.68 -5 4 Z " fill="#D3D4D2" transform="translate(167,161)"/>
<path d="M0 0 C2.31 0.33 4.62 0.66 7 1 C7 1.66 7 2.32 7 3 C5.02 3 3.04 3 1 3 C0.67 2.01 0.34 1.02 0 0 Z " fill="#959595" transform="translate(171,147)"/>
<path d="M0 0 C0.33 0.99 0.66 1.98 1 3 C0.01 3.66 -0.98 4.32 -2 5 C-2 4.01 -2 3.02 -2 2 C-3.98 2 -5.96 2 -8 2 C-8 1.67 -8 1.34 -8 1 C-5.23735711 0.40267181 -2.83967231 0 0 0 Z " fill="#C2C2C2" transform="translate(197,138)"/>
<path d="M0 0 C0.66 0.33 1.32 0.66 2 1 C1.34 3.31 0.68 5.62 0 8 C-0.66 7.67 -1.32 7.34 -2 7 C-2.125 4.625 -2.125 4.625 -2 2 C-1.34 1.34 -0.68 0.68 0 0 Z " fill="#CDCCD0" transform="translate(134,130)"/>
<path d="M0 0 C0 1.65 0 3.3 0 5 C-0.99 5 -1.98 5 -3 5 C-3.33 3.68 -3.66 2.36 -4 1 C-2 0 -2 0 0 0 Z " fill="#D6D7D5" transform="translate(127,128)"/>
<path d="M0 0 C-4.43076923 3.07692308 -4.43076923 3.07692308 -7.3125 2.6875 C-8.1478125 2.3471875 -8.1478125 2.3471875 -9 2 C-8.34 2 -7.68 2 -7 2 C-7 1.34 -7 0.68 -7 0 C-3.86650268 -1.04449911 -3.01031744 -0.93423645 0 0 Z " fill="#C1C1BF" transform="translate(186,102)"/>
<path d="M0 0 C1.32 0 2.64 0 4 0 C4 0.66 4 1.32 4 2 C4.66 2 5.32 2 6 2 C6 2.66 6 3.32 6 4 C3.03 3.505 3.03 3.505 0 3 C0 2.01 0 1.02 0 0 Z " fill="#81817F" transform="translate(108,87)"/>
<path d="M0 0 C0.99 0.33 1.98 0.66 3 1 C3 1.66 3 2.32 3 3 C2.01 3 1.02 3 0 3 C0 3.66 0 4.32 0 5 C-0.99 5 -1.98 5 -3 5 C-3 4.01 -3 3.02 -3 2 C-2.01 2 -1.02 2 0 2 C0 1.34 0 0.68 0 0 Z " fill="#C4C4C2" transform="translate(86,34)"/>
<path d="M0 0 C0.33 0.66 0.66 1.32 1 2 C1.99 2.33 2.98 2.66 4 3 C1.35261084 4.4606285 0.10551666 5 -3 5 C-3 4.01 -3 3.02 -3 2 C-2.01 1.34 -1.02 0.68 0 0 Z " fill="#CDCDCB" transform="translate(175,28)"/>
<path d="M0 0 C0.33 0.99 0.66 1.98 1 3 C-0.32 3.99 -1.64 4.98 -3 6 C-3.99 5.01 -4.98 4.02 -6 3 C-5.38125 2.87625 -4.7625 2.7525 -4.125 2.625 C-1.80879168 2.12802644 -1.80879168 2.12802644 0 0 Z " fill="#D4D4D2" transform="translate(15,25)"/>
<path d="M0 0 C0.66 0 1.32 0 2 0 C2.33 1.98 2.66 3.96 3 6 C2.01 6 1.02 6 0 6 C-0.38218767 4.34385343 -0.71395102 2.67542976 -1 1 C-0.67 0.67 -0.34 0.34 0 0 Z " fill="#BEBFBD" transform="translate(157,9)"/>
</svg>
